<?xml version="1.0" encoding="utf-8"?>
<!-- Generator: Adobe Illustrator 24.0.2, SVG Export Plug-In . SVG Version: 6.00 Build 0)  -->
<svg version="1.1" id="Ebene_1" xmlns="http://www.w3.org/2000/svg" xmlns:xlink="http://www.w3.org/1999/xlink" x="0px" y="0px"
	 viewBox="0 0 50 50" style="enable-background:new 0 0 50 50;" xml:space="preserve">
<style type="text/css">
	.st0{fill:#C7B299;stroke:#000000;stroke-miterlimit:10;}
	.st1{fill:#F15A24;stroke:#C1272D;stroke-miterlimit:10;}
	.st2{opacity:0.66;fill:#FFFF00;enable-background:new    ;}
	.st3{fill:none;stroke:#000000;stroke-width:4;stroke-miterlimit:10;}
</style>
<title>Feuerball_Skillbar</title>
<rect x="0.5" y="0.5" class="st0" width="49" height="49"/>
<g>
	<path class="st1" d="M21.4,27.1c2.1-2.6,1.7-6.4-1-8.5s-6.4-1.7-8.5,1c-0.6,0.8-1.1,1.7-1.2,2.7l-5.3,8.6l3.1-0.7l-3.3,5l5.3-3.4
		L8,37.4l5.2-4.1l-0.5,2.2l6.4-6.7C20.1,28.5,20.8,27.9,21.4,27.1z"/>
	<path class="st2" d="M20.3,26.1c1.6-2,1.2-4.8-0.7-6.4s-4.8-1.2-6.4,0.7c-0.5,0.6-0.8,1.3-0.9,2l-3.9,6.4l2.3-0.5l-2.5,3.7l3.9-2.5
		l-1.9,4.2l3.9-3l-0.3,1.6l4.7-4.9C19.3,27.1,19.8,26.7,20.3,26.1z"/>
</g>
<g>
	<path class="st1" d="M42.9,27.7c2.1,2.6,1.7,6.5-1,8.6c-2.6,2.1-6.5,1.7-8.6-1c-0.6-0.8-1.1-1.8-1.2-2.8l-5.3-8.7l3.2,0.7l-3.3-5
		l5.3,3.4l-2.6-5.6l5.3,4.1l-0.5-2.2l6.4,6.7C41.5,26.3,42.3,26.9,42.9,27.7z"/>
	<path class="st2" d="M41.7,28.7c1.6,2,1.3,4.9-0.7,6.4c-2,1.6-4.9,1.3-6.4-0.7c-0.5-0.6-0.8-1.3-0.9-2.1l-3.9-6.5l2.4,0.5l-2.5-3.7
		l4,2.5L31.7,21l3.9,3.1l-0.3-1.6l4.8,5C40.7,27.7,41.3,28.1,41.7,28.7z"/>
</g>
<line class="st3" x1="2.8" y1="13.4" x2="47.4" y2="13.4"/>
</svg>
