<?xml version="1.0" encoding="utf-8"?>
<!-- Generator: Adobe Illustrator 24.0.2, SVG Export Plug-In . SVG Version: 6.00 Build 0)  -->
<svg version="1.1" id="Ebene_1" xmlns="http://www.w3.org/2000/svg" xmlns:xlink="http://www.w3.org/1999/xlink" x="0px" y="0px"
	 viewBox="0 0 200 90" style="enable-background:new 0 0 200 90;" xml:space="preserve">
<style type="text/css">
	.st0{fill:#871E00;}
	.st1{fill:#C6220E;}
	.st2{enable-background:new    ;}
	.st3{fill:#FFE3D9;}
</style>
<g id="Ebene_2_1_">
	<rect class="st0" width="200" height="90"/>
	<polygon class="st1" points="189.6,0 13.6,0 13.6,45 13.6,90 189.6,90 189.6,45 	"/>
</g>
<g class="st2">
	<path class="st3" d="M15.1,56.2V30.5h3.4l7.8,13c1.8,3,3.2,5.7,4.4,8.3l0.1,0c-0.3-3.4-0.4-6.5-0.4-10.5V30.5h3v25.6h-3.2l-7.7-13
		c-1.7-2.8-3.3-5.8-4.6-8.5l-0.1,0c0.2,3.2,0.3,6.3,0.3,10.6v10.9H15.1z"/>
	<path class="st3" d="M40.5,47.6c0.1,4.5,2.8,6.4,6,6.4c2.3,0,3.6-0.4,4.8-0.9l0.5,2.4c-1.1,0.5-3,1.1-5.8,1.1
		c-5.4,0-8.6-3.7-8.6-9.3c0-5.5,3.1-9.9,8.2-9.9c5.7,0,7.2,5.3,7.2,8.7c0,0.7-0.1,1.2-0.1,1.6H40.5z M49.9,45.2
		c0-2.1-0.8-5.4-4.4-5.4c-3.2,0-4.6,3.1-4.9,5.4H49.9z"/>
	<path class="st3" d="M71.5,51.1c0,1.9,0,3.6,0.1,5h-2.8l-0.2-3h-0.1c-0.8,1.5-2.7,3.4-5.8,3.4c-2.7,0-6-1.6-6-8.1V37.8h3.2v10.2
		c0,3.5,1,5.9,3.9,5.9c2.1,0,3.6-1.6,4.2-3c0.2-0.5,0.3-1.1,0.3-1.7V37.8h3.2V51.1z"/>
	<path class="st3" d="M78.5,47.6c0.1,4.5,2.8,6.4,6,6.4c2.3,0,3.6-0.4,4.8-0.9l0.5,2.4c-1.1,0.5-3,1.1-5.8,1.1
		c-5.4,0-8.6-3.7-8.6-9.3c0-5.5,3.1-9.9,8.2-9.9c5.7,0,7.2,5.3,7.2,8.7c0,0.7-0.1,1.2-0.1,1.6H78.5z M87.9,45.2
		c0-2.1-0.8-5.4-4.4-5.4c-3.2,0-4.6,3.1-4.9,5.4H87.9z"/>
	<path class="st3" d="M94.4,52.7c0.9,0.6,2.6,1.3,4.2,1.3c2.3,0,3.4-1.2,3.4-2.7c0-1.6-0.9-2.5-3.3-3.4c-3.1-1.2-4.6-3-4.6-5.2
		c0-3,2.3-5.4,6-5.4c1.8,0,3.3,0.5,4.3,1.1l-0.8,2.4c-0.7-0.5-2-1.1-3.6-1.1c-1.9,0-2.9,1.1-2.9,2.5c0,1.5,1,2.2,3.3,3.1
		c3,1.2,4.6,2.8,4.6,5.5c0,3.2-2.4,5.5-6.5,5.5c-1.9,0-3.7-0.5-4.9-1.3L94.4,52.7z"/>
	<path class="st3" d="M116.5,52.1c1.4,0.9,3.5,1.7,5.6,1.7c3.2,0,5.1-1.8,5.1-4.4c0-2.4-1.3-3.8-4.6-5.1c-4-1.5-6.4-3.6-6.4-7.3
		c0-4,3.1-7,7.9-7c2.5,0,4.3,0.6,5.4,1.3l-0.9,2.7c-0.8-0.5-2.4-1.2-4.6-1.2c-3.3,0-4.6,2.1-4.6,3.8c0,2.4,1.5,3.6,4.8,4.9
		c4.1,1.7,6.2,3.8,6.2,7.5c0,4-2.8,7.4-8.5,7.4c-2.3,0-4.9-0.7-6.2-1.6L116.5,52.1z"/>
	<path class="st3" d="M134.6,43.8c0-2.4-0.1-4.3-0.1-6h2.9l0.1,3.2h0.1c1.3-2.2,3.4-3.6,6.2-3.6c4.2,0,7.4,3.8,7.4,9.3
		c0,6.6-3.8,9.9-7.9,9.9c-2.3,0-4.3-1.1-5.4-2.9h-0.1v10h-3.1V43.8z M137.8,48.7c0,0.5,0.1,1,0.1,1.4c0.6,2.3,2.5,3.9,4.8,3.9
		c3.4,0,5.3-2.9,5.3-7.1c0-3.7-1.8-6.8-5.2-6.8c-2.2,0-4.2,1.6-4.8,4.1c-0.1,0.4-0.2,0.9-0.2,1.4V48.7z"/>
	<path class="st3" d="M158.7,32.6c0,1.1-0.8,2.1-2,2.1c-1.1,0-1.9-0.9-1.9-2.1c0-1.2,0.8-2.1,2-2.1C158,30.5,158.7,31.4,158.7,32.6z
		 M155.2,56.2V37.8h3.2v18.4H155.2z"/>
	<path class="st3" d="M165.4,47.6c0.1,4.5,2.8,6.4,6,6.4c2.3,0,3.6-0.4,4.8-0.9l0.5,2.4c-1.1,0.5-3,1.1-5.8,1.1
		c-5.4,0-8.6-3.7-8.6-9.3c0-5.5,3.1-9.9,8.2-9.9c5.7,0,7.2,5.3,7.2,8.7c0,0.7-0.1,1.2-0.1,1.6H165.4z M174.7,45.2
		c0-2.1-0.8-5.4-4.4-5.4c-3.2,0-4.6,3.1-4.9,5.4H174.7z"/>
	<path class="st3" d="M181.7,29.2h3.2v27h-3.2V29.2z"/>
</g>
</svg>
