<?xml version="1.0" encoding="utf-8"?>
<!-- Generator: Adobe Illustrator 24.0.2, SVG Export Plug-In . SVG Version: 6.00 Build 0)  -->
<svg version="1.1" id="Ebene_1" xmlns="http://www.w3.org/2000/svg" xmlns:xlink="http://www.w3.org/1999/xlink" x="0px" y="0px"
	 viewBox="0 0 200 90" style="enable-background:new 0 0 200 90;" xml:space="preserve">
<style type="text/css">
	.st0{fill:#871E00;}
	.st1{fill:#C6220E;}
	.st2{fill:#FFE3D9;}
</style>
<g id="Ebene_2_1_">
	<rect class="st0" width="200" height="90"/>
	<polygon class="st1" points="189.6,0 13.6,0 13.6,45 13.6,90 189.6,90 189.6,45 	"/>
</g>
<g>
	<path class="st2" d="M56.6,30.1c1.6-0.3,3.7-0.5,6.3-0.5c3.3,0,5.7,0.8,7.2,2.2c1.4,1.3,2.2,3.2,2.2,5.6c0,2.4-0.7,4.4-2,5.8
		c-1.7,2-4.6,3-7.8,3c-1,0-1.9,0-2.7-0.2v10.8h-3.3V30.1z M59.9,43.1c0.7,0.2,1.6,0.3,2.7,0.3c4,0,6.4-2,6.4-5.8
		c0-3.6-2.4-5.3-6-5.3c-1.4,0-2.5,0.1-3.1,0.3V43.1z"/>
	<path class="st2" d="M85.9,56.7l-0.3-2.4h-0.1c-1,1.5-3,2.9-5.6,2.9c-3.7,0-5.6-2.8-5.6-5.6c0-4.7,4-7.2,11.1-7.2V44
		c0-1.6-0.4-4.5-4.2-4.5c-1.7,0-3.5,0.6-4.8,1.4l-0.8-2.3c1.5-1,3.7-1.7,6-1.7c5.6,0,7,4,7,7.9v7.2c0,1.7,0.1,3.3,0.3,4.6H85.9z
		 M85.4,46.9c-3.6-0.1-7.8,0.6-7.8,4.4c0,2.3,1.4,3.4,3.2,3.4c2.4,0,3.9-1.6,4.4-3.2c0.1-0.4,0.2-0.8,0.2-1.1V46.9z"/>
	<path class="st2" d="M109.4,51.5c0,2,0,3.8,0.2,5.3h-3l-0.2-3.2h-0.1c-0.9,1.6-2.8,3.6-6.1,3.6c-2.9,0-6.3-1.7-6.3-8.5V37.4h3.3
		v10.7c0,3.7,1.1,6.2,4.1,6.2c2.2,0,3.8-1.6,4.4-3.2c0.2-0.5,0.3-1.2,0.3-1.8V37.4h3.3V51.5z"/>
	<path class="st2" d="M114.5,53.1c1,0.7,2.7,1.4,4.4,1.4c2.4,0,3.6-1.3,3.6-2.9c0-1.7-0.9-2.6-3.4-3.6c-3.3-1.2-4.9-3.2-4.9-5.5
		c0-3.1,2.4-5.7,6.3-5.7c1.9,0,3.5,0.6,4.5,1.2l-0.8,2.6c-0.7-0.5-2.1-1.1-3.8-1.1c-2,0-3.1,1.2-3.1,2.6c0,1.6,1.1,2.3,3.5,3.3
		c3.2,1.3,4.8,3,4.8,5.8c0,3.4-2.5,5.8-6.9,5.8c-2,0-3.9-0.5-5.2-1.3L114.5,53.1z"/>
	<path class="st2" d="M131.9,47.7c0.1,4.8,3,6.7,6.3,6.7c2.4,0,3.8-0.4,5.1-1l0.6,2.5c-1.2,0.6-3.2,1.2-6.1,1.2c-5.7,0-9-3.9-9-9.8
		s3.3-10.4,8.6-10.4c6,0,7.6,5.6,7.6,9.1c0,0.7-0.1,1.3-0.1,1.6H131.9z M141.7,45.2c0-2.2-0.9-5.7-4.6-5.7c-3.4,0-4.9,3.3-5.1,5.7
		H141.7z"/>
</g>
</svg>
