<?xml version="1.0" encoding="utf-8"?>
<!-- Generator: Adobe Illustrator 24.0.2, SVG Export Plug-In . SVG Version: 6.00 Build 0)  -->
<svg version="1.1" xmlns="http://www.w3.org/2000/svg" xmlns:xlink="http://www.w3.org/1999/xlink" x="0px" y="0px"
	 viewBox="0 0 100 45" style="enable-background:new 0 0 100 45;" xml:space="preserve">
<style type="text/css">
	.st0{fill:#871E00;}
	.st1{fill:#C6220E;}
	.st2{fill:#FFE3D9;}
	.st3{fill:none;stroke:#000000;stroke-miterlimit:10;}
</style>
<g id="Ebene_2">
	<polygon class="st0" points="100.7,0.1 -0.9,-0.9 -0.7,23 -0.9,46.8 100.7,46.8 100.7,23 	"/>
	<polygon class="st1" points="94.7,0 5.3,0 5.3,23.4 5.3,46.8 94.7,46.8 94.7,23.4 	"/>
	<g>
		<path class="st2" d="M24.4,21.5c0,4.4-2.7,6.8-6,6.8c-3.4,0-5.8-2.6-5.8-6.5c0-4.1,2.5-6.8,6-6.8C22.1,15,24.4,17.7,24.4,21.5z
			 M14.4,21.7c0,2.8,1.5,5.2,4.1,5.2c2.6,0,4.1-2.4,4.1-5.3c0-2.6-1.3-5.2-4.1-5.2C15.8,16.3,14.4,18.9,14.4,21.7z"/>
		<path class="st2" d="M26.5,21.8c0-1.2,0-2.1-0.1-3h1.5l0.1,1.6h0c0.7-1.1,1.8-1.8,3.3-1.8c2.2,0,3.9,1.9,3.9,4.7c0,3.3-2,5-4.2,5
			c-1.2,0-2.3-0.5-2.8-1.5h0v5h-1.7V21.8z M28.1,24.3c0,0.2,0,0.5,0.1,0.7c0.3,1.2,1.3,2,2.5,2c1.8,0,2.8-1.5,2.8-3.6
			c0-1.9-1-3.4-2.8-3.4c-1.1,0-2.2,0.8-2.5,2.1c-0.1,0.2-0.1,0.5-0.1,0.7V24.3z"/>
		<path class="st2" d="M39.4,16.2v2.7h2.4v1.3h-2.4v5c0,1.1,0.3,1.8,1.3,1.8c0.4,0,0.8-0.1,1-0.1l0.1,1.3c-0.3,0.1-0.8,0.2-1.5,0.2
			c-0.8,0-1.4-0.2-1.8-0.7c-0.5-0.5-0.6-1.3-0.6-2.4v-5h-1.4v-1.3h1.4v-2.2L39.4,16.2z"/>
		<path class="st2" d="M45.5,16.2c0,0.6-0.4,1-1.1,1c-0.6,0-1-0.5-1-1c0-0.6,0.4-1.1,1.1-1.1C45.1,15.2,45.5,15.6,45.5,16.2z
			 M43.7,28.1v-9.2h1.7v9.2H43.7z"/>
		<path class="st2" d="M56.5,23.4c0,3.4-2.4,4.9-4.6,4.9c-2.5,0-4.4-1.8-4.4-4.8c0-3.1,2-4.9,4.6-4.9C54.7,18.6,56.5,20.5,56.5,23.4
			z M49.2,23.5c0,2,1.2,3.6,2.8,3.6c1.6,0,2.8-1.5,2.8-3.6c0-1.6-0.8-3.6-2.8-3.6C50,19.9,49.2,21.7,49.2,23.5z"/>
		<path class="st2" d="M58.6,21.3c0-1,0-1.7-0.1-2.5H60l0.1,1.5h0c0.5-0.9,1.5-1.7,3.1-1.7c1.3,0,3.3,0.8,3.3,3.9v5.5h-1.7v-5.3
			c0-1.5-0.6-2.7-2.1-2.7c-1.1,0-2,0.8-2.3,1.7c-0.1,0.2-0.1,0.5-0.1,0.8v5.6h-1.7V21.3z"/>
		<path class="st2" d="M70.2,23.7c0,2.3,1.5,3.2,3.2,3.2c1.2,0,1.9-0.2,2.6-0.5l0.3,1.2c-0.6,0.3-1.6,0.6-3.1,0.6
			c-2.8,0-4.5-1.9-4.5-4.7s1.6-5,4.3-5c3,0,3.8,2.7,3.8,4.4c0,0.3,0,0.6-0.1,0.8H70.2z M75.1,22.5c0-1.1-0.4-2.7-2.3-2.7
			c-1.7,0-2.4,1.6-2.6,2.7H75.1z"/>
		<path class="st2" d="M78.8,21.3c0-1,0-1.7-0.1-2.5h1.5l0.1,1.5h0c0.5-0.9,1.5-1.7,3.1-1.7c1.3,0,3.3,0.8,3.3,3.9v5.5H85v-5.3
			c0-1.5-0.6-2.7-2.1-2.7c-1.1,0-2,0.8-2.3,1.7c-0.1,0.2-0.1,0.5-0.1,0.8v5.6h-1.7V21.3z"/>
	</g>
	<path class="st3" d="M10,48.7"/>
	<path class="st3" d="M10-1.2"/>
	<path class="st3" d="M90-1.2"/>
</g>
<g id="Ebene_1">
	<title>buttonOptionen</title>
</g>
</svg>
