<?xml version="1.0" encoding="utf-8"?>
<!-- Generator: Adobe Illustrator 24.0.2, SVG Export Plug-In . SVG Version: 6.00 Build 0)  -->
<svg version="1.1" id="Ebene_1" xmlns="http://www.w3.org/2000/svg" xmlns:xlink="http://www.w3.org/1999/xlink" x="0px" y="0px"
	 viewBox="0 0 200 90" style="enable-background:new 0 0 200 90;" xml:space="preserve">
<style type="text/css">
	.st0{fill:#871E00;}
	.st1{fill:#C6220E;}
	.st2{enable-background:new    ;}
	.st3{fill:#FFE3D9;}
</style>
<g id="Ebene_2_1_">
	<rect class="st0" width="200" height="90"/>
	<polygon class="st1" points="189.6,0 13.6,0 13.6,45 13.6,90 189.6,90 189.6,45 	"/>
</g>
<g class="st2">
	<path class="st3" d="M46,54.7l14.2-21.9v-0.1h-13v-2.9h17.3v2.1L50.4,53.7v0.1h14.3v2.9H46V54.7z"/>
	<path class="st3" d="M83.8,51.5c0,2,0,3.8,0.2,5.3h-3l-0.2-3.2h-0.1c-0.9,1.6-2.8,3.6-6.1,3.6c-2.9,0-6.3-1.7-6.3-8.5V37.4h3.3
		v10.7c0,3.7,1.1,6.2,4.1,6.2c2.2,0,3.8-1.6,4.4-3.2c0.2-0.5,0.3-1.2,0.3-1.8V37.4h3.3V51.5z"/>
	<path class="st3" d="M89.3,43.4c0-2.3,0-4.2-0.2-6h2.9l0.1,3.8h0.2c0.8-2.6,2.8-4.2,5.1-4.2c0.4,0,0.6,0,0.9,0.1v3.3
		c-0.3-0.1-0.7-0.1-1.1-0.1c-2.4,0-4,1.9-4.5,4.5c-0.1,0.5-0.2,1-0.2,1.6v10.3h-3.3V43.4z"/>
	<path class="st3" d="M117.1,51.5c0,2,0,3.8,0.2,5.3h-3l-0.2-3.2h-0.1c-0.9,1.6-2.8,3.6-6.1,3.6c-2.9,0-6.3-1.7-6.3-8.5V37.4h3.3
		v10.7c0,3.7,1.1,6.2,4.1,6.2c2.2,0,3.8-1.6,4.4-3.2c0.2-0.5,0.3-1.2,0.3-1.8V37.4h3.3V51.5z M104.1,31.9c0-1.1,0.9-2,1.9-2
		c1.1,0,1.9,0.9,1.9,2c0,1.1-0.8,2-1.9,2C104.9,33.9,104.1,33,104.1,31.9z M111.2,31.9c0-1.1,0.8-2,1.9-2c1.1,0,1.9,0.9,1.9,2
		c0,1.1-0.8,2-1.9,2C111.9,33.9,111.2,33,111.2,31.9z"/>
	<path class="st3" d="M135.8,56c-0.9,0.5-2.8,1.1-5.3,1.1c-5.5,0-9.2-4-9.2-9.9c0-6,3.9-10.3,9.9-10.3c2,0,3.7,0.5,4.6,1l-0.8,2.7
		c-0.8-0.5-2.1-0.9-3.9-0.9c-4.2,0-6.5,3.3-6.5,7.3c0,4.5,2.7,7.2,6.4,7.2c1.9,0,3.2-0.5,4.1-1L135.8,56z"/>
	<path class="st3" d="M143,46.3L143,46.3c0.5-0.7,1.2-1.5,1.7-2.2l5.4-6.7h4l-7.1,8l8.1,11.4h-4.1l-6.3-9.3l-1.7,2v7.3h-3.3V28.4
		h3.3V46.3z"/>
</g>
</svg>
