<?xml version="1.0" encoding="utf-8"?>
<!-- Generator: Adobe Illustrator 24.0.2, SVG Export Plug-In . SVG Version: 6.00 Build 0)  -->
<svg version="1.1" id="Ebene_1" xmlns="http://www.w3.org/2000/svg" xmlns:xlink="http://www.w3.org/1999/xlink" x="0px" y="0px"
	 viewBox="0 0 200 90" style="enable-background:new 0 0 200 90;" xml:space="preserve">
<style type="text/css">
	.st0{fill:#871E00;}
	.st1{fill:#C6220E;}
	.st2{enable-background:new    ;}
	.st3{fill:#FFE3D9;}
</style>
<g id="Ebene_2_1_">
	<rect class="st0" width="200" height="90"/>
	<polygon class="st1" points="189.6,0 13.6,0 13.6,45 13.6,90 189.6,90 189.6,45 	"/>
</g>
<g class="st2">
	<path class="st3" d="M55.8,56.7l-6.5-26.9h3.5l3,13.6c0.8,3.4,1.4,6.7,1.9,9.3h0.1c0.4-2.7,1.2-5.9,2.1-9.4l3.4-13.6h3.5l3.1,13.7
		c0.7,3.2,1.4,6.4,1.8,9.2h0.1c0.5-3,1.3-6,2.1-9.3l3.4-13.6h3.4l-7.3,26.9h-3.5l-3.2-14c-0.8-3.4-1.3-6.1-1.7-8.8h-0.1
		c-0.5,2.7-1,5.3-2,8.8l-3.6,14H55.8z"/>
	<path class="st3" d="M84.2,47.7c0.1,4.8,3,6.7,6.3,6.7c2.4,0,3.8-0.4,5.1-1l0.6,2.5c-1.2,0.6-3.2,1.2-6.1,1.2c-5.7,0-9-3.9-9-9.8
		s3.3-10.4,8.6-10.4c6,0,7.6,5.6,7.6,9.1c0,0.7-0.1,1.3-0.1,1.6H84.2z M94,45.2c0-2.2-0.9-5.7-4.6-5.7c-3.4,0-4.9,3.3-5.1,5.7H94z"
		/>
	<path class="st3" d="M105.1,32c0,1.2-0.8,2.2-2.1,2.2c-1.2,0-2-1-2-2.2c0-1.2,0.9-2.2,2.1-2.2C104.3,29.8,105.1,30.7,105.1,32z
		 M101.4,56.7V37.4h3.3v19.3H101.4z"/>
	<path class="st3" d="M114.3,31.8v5.6h4.8v2.7h-4.8v10.4c0,2.4,0.6,3.8,2.5,3.8c0.9,0,1.5-0.1,1.9-0.2l0.2,2.6
		c-0.6,0.3-1.7,0.5-3,0.5c-1.6,0-2.8-0.5-3.6-1.5c-0.9-1-1.3-2.8-1.3-5V40.1h-2.8v-2.7h2.8v-4.6L114.3,31.8z"/>
	<path class="st3" d="M124.5,47.7c0.1,4.8,3,6.7,6.3,6.7c2.4,0,3.8-0.4,5.1-1l0.6,2.5c-1.2,0.6-3.2,1.2-6.1,1.2c-5.7,0-9-3.9-9-9.8
		s3.3-10.4,8.6-10.4c6,0,7.6,5.6,7.6,9.1c0,0.7-0.1,1.3-0.1,1.6H124.5z M134.3,45.2c0-2.2-0.9-5.7-4.6-5.7c-3.4,0-4.9,3.3-5.1,5.7
		H134.3z"/>
	<path class="st3" d="M141.7,43.4c0-2.3,0-4.2-0.2-6h2.9l0.1,3.8h0.2c0.8-2.6,2.8-4.2,5.1-4.2c0.4,0,0.6,0,0.9,0.1v3.3
		c-0.3-0.1-0.7-0.1-1.1-0.1c-2.4,0-4,1.9-4.5,4.5c-0.1,0.5-0.2,1-0.2,1.6v10.3h-3.3V43.4z"/>
</g>
</svg>
