<svg id="Ebene_1" data-name="Ebene 1" xmlns="http://www.w3.org/2000/svg" viewBox="0 0 112.44 185.75"><defs><style>.cls-1{fill:#fff;}.cls-1,.cls-4{stroke:#000;stroke-miterlimit:10;}.cls-2{fill:#603813;}.cls-3{fill:#502803;}</style></defs><title>doorClosed</title><path class="cls-1" d="M62.5,153.84" transform="translate(-43.28 -0.21)"/><rect class="cls-2" x="0.72" y="44.75" width="111" height="140.92"/><path class="cls-2" d="M155.5,186H43.5v-142h112Zm-111-1.13h110V45.05H44.5Z" transform="translate(-43.28 -0.21)"/><path class="cls-3" d="M99,.21h.48C62.11,1.81,51.29,21.46,46.87,33.63c-.63,1.73-1.13,3.32-1.56,4.67-.76,2.4-1.31,2.5-2,4.81l.44,1c.45-.25,5.28.06,6.28.06H151c2,0,3.82-.31,4.27-.06l.23-.5h0l.22-.51a20,20,0,0,1-2-4.8C150.26,27.45,142.23,2,99.52.22" transform="translate(-43.28 -0.21)"/><line class="cls-4" x1="58.22" y1="44.07" x2="57.22" y2="185.64"/><ellipse class="cls-4" cx="67.72" cy="115.22" rx="5" ry="5.64"/><ellipse class="cls-4" cx="43.72" cy="115.09" rx="5" ry="5.64"/></svg>