<svg id="Ebene_1" data-name="Ebene 1" xmlns="http://www.w3.org/2000/svg" viewBox="0 0 181.12 174.14"><defs><style>.cls-1{fill:#603813;}.cls-2{fill:#502803;}.cls-3{stroke:#000;stroke-miterlimit:10;}.cls-4{fill:#ffdb43;}</style></defs><title>doorOffen</title><polygon class="cls-1" points="146.94 39 180.94 30 180.94 174 146.94 165 146.94 39"/><path class="cls-2" d="M99.93,18c-37.38,1.41-48.2,18.85-52.62,29.64-.63,1.54-1.13,2.94-1.56,4.15-.75,2.12-1.3,2.21-2,4.26l.45.9c.45-.23,5.28,0,6.28,0h101c2,0,3.82-.28,4.27,0l.22-.45h0l.22-.45a17.52,17.52,0,0,1-2-4.26C150.71,42.16,142.68,19.61,100,18" transform="translate(-9.06 -18)"/><line class="cls-3" x1="0.5" y1="30.21" x2="0.5" y2="174"/><polygon class="cls-1" points="34.94 39.14 0.94 30.14 0.94 174.14 34.94 165.14 34.94 39.14"/><line class="cls-3" x1="180.62" y1="30.25" x2="180.62" y2="174.04"/><rect class="cls-4" x="34.44" y="39" width="113" height="126.5"/></svg>