<svg id="Ebene_1" data-name="Ebene 1" xmlns="http://www.w3.org/2000/svg" viewBox="0 0 50 50"><defs><style>.cls-1{fill:#c7b299;stroke:#000;stroke-miterlimit:10;}.cls-2{fill:#f15a24;}.cls-3{fill:#c1272d;}.cls-4{fill:#ff0;opacity:0.66;}</style></defs><title>DreifachFeuerball_Skillbar</title><rect class="cls-1" x="0.5" y="0.5" width="49" height="49"/><path class="cls-2" d="M31.68,3.7A14.19,14.19,0,0,0,27,5.89L26.85,6,10.64,11.88l5.09,1.32L6.42,16.29,16.94,16,7.24,20.5l11.25-1.13-2.91,2,15.05-3a14.43,14.43,0,0,0,4.86-.47C41.12,16.4,44.85,12,43.8,8.07S37.31,2.19,31.68,3.7Zm3.48,12.64a11.14,11.14,0,0,1-3.75.36l-12.2,2.43,2.34-1.62-8.8.86,7.41-3.47-8.28.23,7.66-2.55-3.74-1L28.56,6.92a10.91,10.91,0,0,1,3.62-1.7c4.37-1.17,8.57.37,9.4,3.44S39.53,15.17,35.16,16.34Z" transform="translate(0 0)"/><path class="cls-3" d="M31.51,3.08a15.73,15.73,0,0,0-5,2.33L8.36,12l5,1.29L2,17.08l11.78-.35L3.5,21.53,16,20.28l-3.42,2.35L30.46,19a15.37,15.37,0,0,0,5.19-.51c6.12-1.64,10.18-6.44,9-10.7S37.63,1.44,31.51,3.08Zm4.06,15.14a15.16,15.16,0,0,1-5.06.49L14.06,22l3.17-2.18L5.37,21l10-4.66-11.15.34,10.32-3.43L9.5,12,26.71,5.67a14.75,14.75,0,0,1,4.88-2.28C37.48,1.81,43.14,3.85,44.24,8S41.46,16.65,35.57,18.22Z" transform="translate(0 0)"/><path class="cls-3" d="M31.59,3.39a14.75,14.75,0,0,0-4.88,2.28L9.5,12l5,1.3L4.21,16.69l11.15-.34L5.37,21l11.86-1.19L14.06,22l16.45-3.29a15.16,15.16,0,0,0,5.06-.49c5.89-1.57,9.77-6.17,8.67-10.27S37.48,1.81,31.59,3.39Zm3.9,14.52a14.43,14.43,0,0,1-4.86.47l-15,3,2.91-2L7.24,20.5,16.94,16l-10.52.32,9.31-3.09-5.09-1.32L26.85,6,27,5.89A14.19,14.19,0,0,1,31.68,3.7c5.63-1.51,11.07.45,12.12,4.37S41.12,16.4,35.49,17.91Z" transform="translate(0 0)"/><path class="cls-2" d="M32.18,5.22a10.91,10.91,0,0,0-3.62,1.7L15.8,11.59l3.74,1-7.66,2.55,8.28-.23-7.41,3.47,8.8-.86-2.34,1.62,12.2-2.43a11.14,11.14,0,0,0,3.75-.36c4.37-1.17,7.24-4.61,6.42-7.68S36.55,4.05,32.18,5.22Z" transform="translate(0 0)"/><path class="cls-4" d="M32.18,5.22a10.91,10.91,0,0,0-3.62,1.7L15.8,11.59l3.74,1-7.66,2.55,8.28-.23-7.41,3.47,8.8-.86-2.34,1.62,12.2-2.43a11.14,11.14,0,0,0,3.75-.36c4.37-1.17,7.24-4.61,6.42-7.68S36.55,4.05,32.18,5.22Z" transform="translate(0 0)"/><path class="cls-2" d="M34.79,32.73a14.53,14.53,0,0,0-5.17-.44h-.17l-17.07-3L16.15,33,6.49,31l9.32,5L5.1,35l10.35,4.66L11.93,40l14.6,5A14.44,14.44,0,0,0,31,47c5.66,1.52,11.12-.44,12.17-4.36S40.45,34.25,34.79,32.73Zm-3.3,12.7A11.15,11.15,0,0,1,28,43.85l-11.83-4,2.85-.23L11,36l8.18.7-7.31-3.95,7.94,1.63L17,31.61,30.46,34a10.94,10.94,0,0,1,4,.33c4.38,1.18,7.27,4.62,6.45,7.7S35.87,46.61,31.49,45.43Z" transform="translate(0 0)"/><path class="cls-3" d="M35,32.12a15.72,15.72,0,0,0-5.54-.5l-19.1-3.36L14,31.87,2.25,29.45l10.44,5.6-11.36-1,11.48,5.17-4.16.32L26,45.41a15.72,15.72,0,0,0,4.78,2.16C37,49.22,42.9,47.09,44,42.83S41.11,33.76,35,32.12ZM30.9,47.26a15,15,0,0,1-4.65-2.12l-16-5.39,3.84-.29L3.21,34.54l11,1-9.88-5.3,10.71,2.21-3.73-3.65L29.48,32a15.06,15.06,0,0,1,5.39.46c5.92,1.59,9.83,6.2,8.73,10.29S36.81,48.85,30.9,47.26Z" transform="translate(0 0)"/><path class="cls-3" d="M34.87,32.42A15.06,15.06,0,0,0,29.48,32L11.35,28.77l3.73,3.65L4.37,30.21l9.88,5.3-11-1,10.92,4.92-3.84.29,16,5.39a15,15,0,0,0,4.65,2.12c5.91,1.59,11.6-.45,12.7-4.55S40.79,34,34.87,32.42ZM31,47a14.44,14.44,0,0,1-4.45-2l-14.6-5,3.52-.27L5.1,35,15.81,36,6.49,31l9.66,2-3.77-3.69,17.07,3h.17a14.53,14.53,0,0,1,5.17.44c5.66,1.52,9.41,5.94,8.36,9.86S36.64,48.47,31,47Z" transform="translate(0 0)"/><path class="cls-2" d="M34.47,34.3a10.94,10.94,0,0,0-4-.33L17,31.61l2.76,2.73-7.94-1.63,7.31,3.95L11,36l8.09,3.66-2.85.23,11.83,4a11.15,11.15,0,0,0,3.45,1.58c4.38,1.18,8.61-.36,9.43-3.43S38.85,35.48,34.47,34.3Z" transform="translate(0 0)"/><path class="cls-4" d="M34.47,34.3a10.94,10.94,0,0,0-4-.33L17,31.61l2.76,2.73-7.94-1.63,7.31,3.95L11,36l8.09,3.66-2.85.23,11.83,4a11.15,11.15,0,0,0,3.45,1.58c4.38,1.18,8.61-.36,9.43-3.43S38.85,35.48,34.47,34.3Z" transform="translate(0 0)"/><path class="cls-2" d="M36.25,17.64a16.7,16.7,0,0,0-5.53.91l-.18,0L11.86,20.1l5,2.59-10.65.58,11.14,2.41L5.86,27.55,18,29.37l-3.61,1.17,16.65,1a16.63,16.63,0,0,0,5.22.81c6.34,0,11.5-3.3,11.5-7.36S42.59,17.64,36.25,17.64Zm.1,13.12a12.91,12.91,0,0,1-4-.63l-13.49-.81,2.91-1-9.48-1.44L21,25.48l-8.76-1.92L21,23.08l-3.65-1.92L32.07,20a12.89,12.89,0,0,1,4.28-.71c4.92,0,8.9,2.58,8.9,5.76S41.27,30.76,36.35,30.76Z" transform="translate(0 0)"/><path class="cls-3" d="M36.25,17a18.29,18.29,0,0,0-5.93,1l-20.9,1.7,4.86,2.53-13,.7L13.8,25.6l-12.16,2,13.45,2L10.83,31l19.83,1.17a18.32,18.32,0,0,0,5.59.85c6.89,0,12.5-3.59,12.5-8S43.14,17,36.25,17Zm0,15.68a17.79,17.79,0,0,1-5.45-.84L12.6,30.76l3.94-1.28L3.75,27.56l11.81-1.92L3.75,23.08l11.81-.64-4.92-2.56,19.84-1.61a17.28,17.28,0,0,1,5.77-.95c6.63,0,12,3.44,12,7.68S42.88,32.68,36.25,32.68Z" transform="translate(0 0)"/><path class="cls-3" d="M36.25,17.32a17.28,17.28,0,0,0-5.77.95L10.64,19.88l4.92,2.56-11.81.64,11.81,2.56L3.75,27.56l12.79,1.92L12.6,30.76l18.2,1.08a17.79,17.79,0,0,0,5.45.84c6.63,0,12-3.44,12-7.68S42.88,17.32,36.25,17.32Zm0,15A16.63,16.63,0,0,1,31,31.55l-16.65-1L18,29.37,5.86,27.55l11.46-1.87L6.18,23.27l10.65-.58-5-2.59,18.68-1.52.18,0a16.7,16.7,0,0,1,5.53-.91c6.34,0,11.5,3.3,11.5,7.36S42.59,32.36,36.25,32.36Z" transform="translate(0 0)"/><path class="cls-2" d="M36.35,19.24a12.89,12.89,0,0,0-4.28.71L17.36,21.16,21,23.08l-8.76.48L21,25.48l-8.76,1.44,9.48,1.44-2.91,1,13.49.81a12.91,12.91,0,0,0,4,.63c4.92,0,8.9-2.58,8.9-5.76S41.27,19.24,36.35,19.24Z" transform="translate(0 0)"/><path class="cls-4" d="M36.35,19.24a12.89,12.89,0,0,0-4.28.71L17.36,21.16,21,23.08l-8.76.48L21,25.48l-8.76,1.44,9.48,1.44-2.91,1,13.49.81a12.91,12.91,0,0,0,4,.63c4.92,0,8.9-2.58,8.9-5.76S41.27,19.24,36.35,19.24Z" transform="translate(0 0)"/></svg>