<svg id="Ebene_1" data-name="Ebene 1" xmlns="http://www.w3.org/2000/svg" viewBox="0 0 201 201"><defs><style>.cls-1{fill:#fff;}.cls-1,.cls-2,.cls-3,.cls-4,.cls-5{stroke:#000;stroke-miterlimit:10;}.cls-2,.cls-3{fill:#006837;}.cls-2{opacity:0.67;}.cls-3,.cls-4,.cls-5{stroke-width:6px;}.cls-5{fill:none;}</style></defs><title>enemySchleimSpawning</title><path class="cls-1" d="M34.5,159.5" transform="translate(0 1)"/><circle class="cls-2" cx="100.5" cy="100.5" r="100"/><circle class="cls-1" cx="86.75" cy="100.75" r="60.75"/><path class="cls-3" d="M173.5,101.5c0-29-2-66-1.5-52,.42,11.87.5,24,.5,53s-.13,63.87-.5,52C171.5,138.5,173.5,130.49,173.5,101.5Z" transform="translate(0 1)"/><path class="cls-4" d="M127,145.29" transform="translate(0 1)"/><path class="cls-4" d="M46.75,54" transform="translate(0 1)"/><path class="cls-4" d="M135,62.83" transform="translate(0 1)"/><path class="cls-4" d="M38.45,136.6" transform="translate(0 1)"/><path class="cls-4" d="M87,39" transform="translate(0 1)"/><path class="cls-5" d="M87,42s109,58.44,0,115" transform="translate(0 1)"/></svg>