<svg id="Ebene_1" data-name="Ebene 1" xmlns="http://www.w3.org/2000/svg" viewBox="0 0 47.43 25"><defs><style>.cls-1{fill:#c1272d;stroke:#72272d;stroke-miterlimit:10;}</style></defs><title>enemyFireball</title><path class="cls-1" d="M35.25,34.25a12,12,0,1,0-5.77-22.52L9.64,14.25l4.92,4-11.81,1,11.81,4-11.81,3,12.79,3-3.94,2,18.2,1.68A11.92,11.92,0,0,0,35.25,34.25Z" transform="translate(-0.32 -9.75)"/><path d="M35.35,31.25a9,9,0,0,0,0-18,8.74,8.74,0,0,0-4.28,1.11L16.36,16.25l3.65,3L11.25,20,20,23l-8.76,2.25,9.48,2.25L17.82,29l13.49,1.26A8.71,8.71,0,0,0,35.35,31.25Z" transform="translate(-0.32 -9.75)"/></svg>