<svg id="Ebene_1" data-name="Ebene 1" xmlns="http://www.w3.org/2000/svg" viewBox="0 0 768 804"><defs><style>.cls-1{fill:#1a1a1a;stroke-width:13px;}.cls-1,.cls-4{stroke:#c1272d;}.cls-1,.cls-4,.cls-5,.cls-6{stroke-miterlimit:10;}.cls-2,.cls-6{fill:#c1272d;}.cls-3{fill:#7c272d;}.cls-4{stroke-width:3px;}.cls-5{fill:#333;}.cls-5,.cls-6{stroke:#000;}.cls-7{fill:none;}</style></defs><title>enemyFireMageAttack</title><path class="cls-1" d="M607,236.5H394.76V237c-18.71,3.56-36,30.57-45.25,104.81l121-34.37s-1.84-3.51-5.07-9H607Z" transform="translate(-139.5 -95.5)"/><path class="cls-1" d="M503.77,683.32s-132.45,172-152.5-44.47" transform="translate(-139.5 -95.5)"/><polygon class="cls-2" points="533.09 253.62 608.14 176.5 532.05 177.53 533.09 253.62"/><polygon class="cls-2" points="440.14 178.78 520.02 256.52 518.39 177.72 440.14 178.78"/><polygon class="cls-2" points="607.97 163.5 530.84 88.44 531.88 164.53 607.97 163.5"/><polygon class="cls-2" points="517.88 91.45 445.62 165.7 518.88 164.71 517.88 91.45"/><polygon class="cls-3" points="525.44 65.04 427.24 165.95 436.43 165.83 517.76 82.26 517.65 74.34 524.15 74.25 525.57 74.24 525.57 74.24 525.57 74.24 530.65 74.17 530.72 79.25 617.16 163.37 623.66 163.28 623.75 169.78 623.84 176.28 617.33 176.37 533.21 262.81 533.32 270.72 520.32 270.95 520.22 265.78 430.95 178.91 427.28 178.96 427.23 175.28 427.23 175.28 427.23 175.28 427.19 172.46 427.1 166.09 418.04 175.41 525.53 280.02 632.94 169.66 525.44 65.04"/><polygon class="cls-3" points="440.14 178.78 430.95 178.91 520.22 265.78 520.02 256.52 440.14 178.78"/><polygon class="cls-3" points="533.09 253.62 533.21 262.81 617.33 176.37 608.14 176.5 533.09 253.62"/><polygon class="cls-3" points="525.57 74.24 525.57 74.24 525.57 74.24 525.57 74.24"/><polygon class="cls-3" points="427.23 175.28 427.23 175.28 427.23 175.28 427.23 175.28"/><polygon class="cls-3" points="607.97 163.5 617.16 163.37 530.72 79.25 530.84 88.44 607.97 163.5"/><polygon class="cls-3" points="517.88 91.45 517.76 82.26 436.43 165.83 445.62 165.7 517.88 91.45"/><polygon class="cls-3" points="531.88 164.53 530.84 88.44 525.69 83.43 524.29 84.86 525.38 164.62 531.88 164.53"/><polygon class="cls-3" points="525.38 164.62 524.29 84.86 517.88 91.45 518.88 164.71 525.38 164.62"/><polygon class="cls-3" points="524.15 74.25 517.65 74.34 517.76 82.26 524.17 75.67 524.15 74.25"/><polygon class="cls-3" points="525.57 74.24 524.15 74.25 524.17 75.67 525.57 74.24"/><polygon class="cls-3" points="530.65 74.17 525.57 74.24 530.72 79.25 530.65 74.17"/><polygon class="cls-3" points="524.29 84.86 524.17 75.67 517.76 82.26 517.88 91.45 524.29 84.86"/><polygon class="cls-3" points="524.29 84.86 525.69 83.43 530.84 88.44 530.72 79.25 525.57 74.24 525.57 74.24 524.17 75.67 524.29 84.86"/><polygon class="cls-3" points="427.1 165.96 427.1 166.09 427.24 165.95 427.1 165.96"/><polygon class="cls-3" points="531.98 171.74 525.48 171.83 526.68 260.21 533.09 253.62 532.05 177.53 608.14 176.5 614.55 169.91 531.97 171.03 531.98 171.74"/><polygon class="cls-3" points="531.97 171.03 614.55 169.91 607.97 163.5 531.88 164.53 531.97 171.03"/><polygon class="cls-3" points="518.88 164.71 445.62 165.7 439.21 172.29 518.97 171.21 518.88 164.71"/><polygon class="cls-3" points="440.14 178.78 518.39 177.72 520.02 256.52 525.28 261.64 526.6 260.28 524.77 171.84 518.98 171.91 518.97 171.21 439.21 172.29 436.42 175.16 440.14 178.78"/><polygon class="cls-3" points="623.66 163.28 617.16 163.37 623.75 169.78 623.66 163.28"/><polygon class="cls-3" points="430.02 172.42 436.43 165.83 427.24 165.95 427.1 166.09 427.19 172.46 430.02 172.42"/><polygon class="cls-3" points="427.28 178.96 430.95 178.91 427.23 175.28 427.28 178.96"/><polygon class="cls-3" points="623.84 176.28 623.75 169.78 617.33 176.37 623.84 176.28"/><polygon class="cls-3" points="427.19 172.46 427.23 175.28 430.02 172.42 427.19 172.46"/><polygon class="cls-3" points="526.82 270.81 526.79 269.41 525.41 270.83 520.22 265.78 520.32 270.95 533.32 270.72 533.21 262.81 526.8 269.4 526.82 270.81"/><polygon class="cls-3" points="439.21 172.29 445.62 165.7 436.43 165.83 430.02 172.42 439.21 172.29"/><polygon class="cls-3" points="614.55 169.91 623.75 169.78 617.16 163.37 607.97 163.5 614.55 169.91"/><polygon class="cls-3" points="436.42 175.16 439.21 172.29 430.02 172.42 427.23 175.28 427.23 175.28 430.95 178.91 440.14 178.78 436.42 175.16"/><polygon class="cls-3" points="526.79 269.41 526.6 260.28 525.28 261.64 520.02 256.52 520.22 265.78 525.41 270.83 526.79 269.41"/><polygon class="cls-3" points="608.14 176.5 617.33 176.37 623.75 169.78 614.55 169.91 608.14 176.5"/><polygon class="cls-3" points="526.68 260.21 526.8 269.4 533.21 262.81 533.09 253.62 526.68 260.21"/><rect class="cls-3" x="658.47" y="266.67" width="5.8" height="0.71" transform="translate(-143.07 -86.49) rotate(-0.78)"/><rect class="cls-3" x="664.92" y="260.08" width="6.5" height="6.5" transform="translate(-143.02 -86.4) rotate(-0.78)"/><polygon class="cls-3" points="525.47 171.12 525.38 164.62 518.88 164.71 518.97 171.21 524.76 171.13 525.47 171.12"/><rect class="cls-3" x="664.97" y="266.58" width="6.5" height="0.71" transform="translate(-143.05 -86.43) rotate(-0.78)"/><polygon class="cls-3" points="524.77 171.84 526.6 260.28 526.68 260.21 525.48 171.83 524.77 171.84"/><polygon class="cls-3" points="526.82 270.81 526.8 269.4 526.79 269.41 526.82 270.81"/><polygon class="cls-3" points="526.79 269.41 526.8 269.4 526.68 260.21 526.6 260.28 526.79 269.41"/><rect class="cls-3" x="664.27" y="266.62" width="0.7" height="0.71" transform="translate(-143.07 -86.44) rotate(-0.78)"/><polygon class="cls-4" points="574.32 394.38 407.1 171.75 138 257.89 138.91 533.75 408.57 618.11 574.32 394.38"/><polyline class="cls-5" points="331.83 324.22 42.06 397.19 331.83 478.82"/><polygon class="cls-6" points="403.02 294.37 387.18 293.72 377.67 306.41 373.39 291.14 358.38 286.02 371.58 277.23 371.81 261.38 384.25 271.21 399.4 266.54 393.89 281.4 403.02 294.37"/><polygon class="cls-6" points="472.4 455.75 458.54 437.93 436 439.25 448.66 420.55 440.44 399.52 462.13 405.79 479.6 391.47 480.34 414.04 499.35 426.22 478.12 433.9 472.4 455.75"/><polygon class="cls-6" points="316.48 517.44 336.18 507.72 339.34 485.98 354.67 501.71 376.32 498 366.1 517.44 376.32 536.88 354.67 533.17 339.34 548.9 336.18 527.16 316.48 517.44"/><polygon class="cls-6" points="245.33 536.67 252.32 518.98 241.71 503.19 260.69 504.38 272.43 489.4 277.17 507.83 295.04 514.36 278.98 524.57 278.29 543.58 263.62 531.46 245.33 536.67"/><polygon class="cls-6" points="214.56 294.37 220.46 277.07 209.56 262.4 227.83 262.67 238.42 247.77 243.81 265.23 261.25 270.69 246.31 281.21 246.5 299.49 231.88 288.53 214.56 294.37"/><polygon class="cls-6" points="308.79 275.13 305.28 256.36 287.82 248.61 304.59 239.47 306.57 220.47 320.44 233.6 339.12 229.61 330.93 246.86 340.49 263.39 321.55 260.93 308.79 275.13"/><polygon class="cls-6" points="470.33 350.13 466.04 332.85 449.38 326.59 464.49 317.17 465.3 299.38 478.92 310.85 496.09 306.12 489.4 322.62 499.2 337.49 481.44 336.22 470.33 350.13"/><polygon class="cls-6" points="364.87 397.98 367.76 375.05 350.51 359.66 373.21 355.33 382.52 334.17 393.65 354.42 416.65 356.73 400.83 373.58 405.74 396.17 384.83 386.33 364.87 397.98"/><polygon class="cls-6" points="424.17 515.52 432.03 500.11 423.79 484.89 440.88 487.6 452.8 475.06 455.5 492.15 471.11 499.62 455.69 507.47 453.42 524.62 441.19 512.38 424.17 515.52"/><polygon class="cls-6" points="189.48 425.83 191.9 403.61 174.98 389.02 196.85 384.46 205.5 363.85 216.6 383.25 238.87 385.1 223.85 401.65 228.97 423.41 208.59 414.24 189.48 425.83"/><polygon class="cls-6" points="125.56 420.13 129.74 405.34 119.92 393.51 135.28 392.92 143.49 379.92 148.81 394.35 163.7 398.14 151.63 407.66 152.62 423 139.84 414.45 125.56 420.13"/><polygon class="cls-6" points="278.02 423.21 280.44 402.56 264.81 388.86 285.2 384.78 293.4 365.68 303.58 383.81 324.28 385.7 310.18 400.99 314.78 421.26 295.89 412.58 278.02 423.21"/><path class="cls-5" d="M471.56,419.44s53,61,0,155" transform="translate(-139.5 -95.5)"/><ellipse id="hitkreis" class="cls-7" cx="384" cy="402" rx="384" ry="402"/></svg>