<svg id="Ebene_1" data-name="Ebene 1" xmlns="http://www.w3.org/2000/svg" viewBox="0 0 768 804"><defs><style>.cls-1{fill:#1a1a1a;stroke-width:13px;}.cls-1,.cls-2{stroke:#c1272d;}.cls-1,.cls-2,.cls-3,.cls-4{stroke-miterlimit:10;}.cls-2{stroke-width:3px;}.cls-3{fill:#4d4d4d;}.cls-3,.cls-4{stroke:#000;}.cls-4{fill:#c1272d;}.cls-5{fill:none;}</style></defs><title>enemyFireMage</title><path class="cls-1" d="M1074,212S953.1,31.7,918.9,246.4" transform="translate(-708.9)"/><path class="cls-1" d="M1073.2,587.8s-132.5,172-152.5-44.5" transform="translate(-708.9)"/><polygon class="cls-2" points="574.3 394.4 407.1 171.8 138 257.9 138.9 533.8 408.6 618.1 574.3 394.4"/><polyline class="cls-3" points="331.8 324.2 42.1 397.2 331.8 478.8"/><polygon class="cls-4" points="403 294.4 387.2 293.7 377.7 306.4 373.4 291.1 358.4 286 371.6 277.2 371.8 261.4 384.2 271.2 399.4 266.5 393.9 281.4 403 294.4"/><polygon class="cls-4" points="472.4 455.8 458.5 437.9 436 439.3 448.7 420.5 440.4 399.5 462.1 405.8 479.6 391.5 480.3 414 499.3 426.2 478.1 433.9 472.4 455.8"/><polygon class="cls-4" points="316.5 517.4 336.2 507.7 339.3 486 354.7 501.7 376.3 498 366.1 517.4 376.3 536.9 354.7 533.2 339.3 548.9 336.2 527.2 316.5 517.4"/><polygon class="cls-4" points="245.3 536.7 252.3 519 241.7 503.2 260.7 504.4 272.4 489.4 277.2 507.8 295 514.4 279 524.6 278.3 543.6 263.6 531.5 245.3 536.7"/><polygon class="cls-4" points="214.6 294.4 220.4 277.1 209.6 262.4 227.8 262.7 238.4 247.8 243.8 265.2 261.2 270.7 246.3 281.2 246.5 299.5 231.9 288.5 214.6 294.4"/><polygon class="cls-4" points="308.8 275.1 305.3 256.4 287.8 248.6 304.6 239.5 306.6 220.5 320.4 233.6 339.1 229.6 330.9 246.9 340.5 263.4 321.5 260.9 308.8 275.1"/><polygon class="cls-4" points="470.3 350.1 466 332.9 449.4 326.6 464.5 317.2 465.3 299.4 478.9 310.9 496.1 306.1 489.4 322.6 499.2 337.5 481.4 336.2 470.3 350.1"/><polygon class="cls-4" points="364.9 398 367.8 375 350.5 359.7 373.2 355.3 382.5 334.2 393.6 354.4 416.6 356.7 400.8 373.6 405.7 396.2 384.8 386.3 364.9 398"/><polygon class="cls-4" points="424.2 515.5 432 500.1 423.8 484.9 440.9 487.6 452.8 475.1 455.5 492.1 471.1 499.6 455.7 507.5 453.4 524.6 441.2 512.4 424.2 515.5"/><polygon class="cls-4" points="189.5 425.8 191.9 403.6 175 389 196.8 384.5 205.5 363.9 216.6 383.3 238.9 385.1 223.8 401.6 229 423.4 208.6 414.2 189.5 425.8"/><polygon class="cls-4" points="125.6 420.1 129.7 405.3 119.9 393.5 135.3 392.9 143.5 379.9 148.8 394.4 163.7 398.1 151.6 407.7 152.6 423 139.8 414.5 125.6 420.1"/><polygon class="cls-4" points="278 423.2 280.4 402.6 264.8 388.9 285.2 384.8 293.4 365.7 303.6 383.8 324.3 385.7 310.2 401 314.8 421.3 295.9 412.6 278 423.2"/><path class="cls-3" d="M1040.9,323.9s53,61,0,155" transform="translate(-708.9)"/><ellipse id="hitkreis" class="cls-5" cx="384" cy="402" rx="384" ry="402"/></svg>