<svg id="Ebene_1" data-name="Ebene 1" xmlns="http://www.w3.org/2000/svg" viewBox="0 0 50 50"><defs><style>.cls-1{fill:#c7b299;stroke:#000;stroke-miterlimit:10;}.cls-2{fill:#f15a24;}.cls-3{fill:#c1272d;}.cls-4{fill:#ff0;opacity:0.66;}</style></defs><title>Feuerhoelle_Skillbar</title><rect class="cls-1" x="0.5" y="0.5" width="49" height="49"/><path class="cls-2" d="M5.79,12.51A10,10,0,0,0,9,14.23l.11,0,10.08,6.66L17.81,17.5l5.62,4-4.54-5.81,6.6,3.56-5.3-5.88,2.33.8L14.58,6.88a9.74,9.74,0,0,0-2.27-2.54c-3.19-2.55-7.25-2.79-9-.53S2.6,10,5.79,12.51Zm5.76-7.32a7.55,7.55,0,0,1,1.76,2L19.75,13l-1.9-.64L22,17l-5-2.72,3.56,4.58-4.62-3.25,1,2.53-8-5.23a7.46,7.46,0,0,1-2.47-1.33c-2.48-2-3.34-5-1.93-6.77S9.08,3.21,11.55,5.19Z" transform="translate(0 0)"/><path class="cls-3" d="M5.51,12.87a10.83,10.83,0,0,0,3.41,1.85L20.2,22.17l-1.33-3.36,6.84,4.81-5.08-6.51,7,3.78-5.88-6.52,2.76.94L15,6.7A10.63,10.63,0,0,0,12.59,4C9.12,1.21,4.71,1,2.76,3.41S2,10.1,5.51,12.87Zm6.94-8.71a10.16,10.16,0,0,1,2.37,2.66l8.69,7.9L21,13.85l5.6,6.2-6.8-3.67,4.81,6.16-6.23-4.38,1.35,3.39L9,14.48a10.23,10.23,0,0,1-3.33-1.79C2.31,10,1.13,6,3,3.61S9.11,1.5,12.45,4.16Z" transform="translate(0 0)"/><path class="cls-3" d="M5.65,12.69A10.23,10.23,0,0,0,9,14.48l10.71,7.07-1.35-3.39,6.23,4.38-4.81-6.16,6.8,3.67L21,13.85l2.55.87-8.69-7.9a10.16,10.16,0,0,0-2.37-2.66C9.11,1.5,4.89,1.25,3,3.61S2.31,10,5.65,12.69Zm6.66-8.35a9.74,9.74,0,0,1,2.27,2.54l7.94,7.25-2.33-.8,5.3,5.88-6.6-3.56,4.54,5.81-5.62-4,1.36,3.44L9.09,14.28l-.11,0a10,10,0,0,1-3.19-1.72C2.6,10,1.46,6.06,3.26,3.81S9.12,1.79,12.31,4.34Z" transform="translate(0 0)"/><path class="cls-2" d="M6.45,11.58a7.46,7.46,0,0,0,2.47,1.33l8,5.23-1-2.53,4.62,3.25-3.56-4.58L22,17l-4.14-4.61,1.9.64L13.31,7.16a7.55,7.55,0,0,0-1.76-2c-2.47-2-5.62-2.15-7-.38S4,9.61,6.45,11.58Z" transform="translate(0 0)"/><path class="cls-4" d="M6.45,11.58a7.46,7.46,0,0,0,2.47,1.33l8,5.23-1-2.53,4.62,3.25-3.56-4.58L22,17l-4.14-4.61,1.9.64L13.31,7.16a7.55,7.55,0,0,0-1.76-2c-2.47-2-5.62-2.15-7-.38S4,9.61,6.45,11.58Z" transform="translate(0 0)"/><path class="cls-2" d="M23.82,6.93a5.13,5.13,0,0,0,.77,2.52l0,.08,1.43,8.55,1.86-2.35.6,4.88,1.63-5.18,1.58,5.22L32.9,15l.93,1.63L34.32,9a5,5,0,0,0,.53-2.43,5.52,5.52,0,0,0-11,.38Zm9.83-.38a3.94,3.94,0,0,1-.41,1.87l-.39,6.23-.77-1.32-.93,4.4-1.22-4-1.3,4.07-.49-4-1.38,1.73L25.62,8.79A3.83,3.83,0,0,1,25,6.84a4.32,4.32,0,0,1,8.63-.29Z" transform="translate(0 0)"/><path class="cls-3" d="M23.34,7a5.52,5.52,0,0,0,.81,2.7l1.6,9.57,1.82-2.3.73,5.94,1.83-5.81,1.68,5.54,1.3-6.24,1.1,1.92.57-9.14a5.55,5.55,0,0,0,.55-2.59,6,6,0,0,0-12,.41Zm11.75-.4a5.23,5.23,0,0,1-.55,2.52L34,17.47l-1-1.78-1.24,5.93-1.62-5.38-1.73,5.49-.67-5.41L25.9,18.65,24.38,9.57a5.28,5.28,0,0,1-.8-2.63,5.76,5.76,0,0,1,11.51-.39Z" transform="translate(0 0)"/><path class="cls-3" d="M23.58,6.94a5.28,5.28,0,0,0,.8,2.63l1.52,9.08,1.84-2.33.67,5.41,1.73-5.49,1.62,5.38L33,15.69l1,1.78.52-8.4a5.23,5.23,0,0,0,.55-2.52,5.76,5.76,0,0,0-11.51.39Zm11.27-.39A5,5,0,0,1,34.32,9l-.49,7.68L32.9,15l-1.18,5.62-1.58-5.22-1.63,5.18-.6-4.88-1.86,2.35L24.62,9.53l0-.08a5.13,5.13,0,0,1-.77-2.52,5.52,5.52,0,0,1,11-.38Z" transform="translate(0 0)"/><path class="cls-2" d="M25,6.84a3.83,3.83,0,0,0,.6,1.95l1.14,6.74,1.38-1.73.49,4,1.3-4.07,1.22,4,.93-4.4.77,1.32.39-6.23a3.94,3.94,0,0,0,.41-1.87A4.32,4.32,0,0,0,25,6.84Z" transform="translate(0 0)"/><path class="cls-4" d="M25,6.84a3.83,3.83,0,0,0,.6,1.95l1.14,6.74,1.38-1.73.49,4,1.3-4.07,1.22,4,.93-4.4.77,1.32.39-6.23a3.94,3.94,0,0,0,.41-1.87A4.32,4.32,0,0,0,25,6.84Z" transform="translate(0 0)"/><path class="cls-2" d="M8.78,33.43a7,7,0,0,0,2.9-.85l.09,0,9.86-1.78-2.77-1.65,5.63-.8-6-1.3,6-1.75-6.54-.83,1.86-1-8.9-.09A6.89,6.89,0,0,0,8.05,23c-3.38.24-6,2.77-5.75,5.64S5.41,33.67,8.78,33.43Zm-.71-9.29a5.2,5.2,0,0,1,2.18.29l7.22.07-1.5.79,5.11.67L16.5,27.3l4.75,1L16.62,29l2,1.22-7.76,1.41a5.52,5.52,0,0,1-2.24.66c-2.62.18-4.87-1.5-5-3.75S5.46,24.32,8.07,24.14Z" transform="translate(0 0)"/><path class="cls-3" d="M8.81,33.88a7.42,7.42,0,0,0,3.11-.9l11-2-2.71-1.61,6.86-1L20.33,27l6.36-1.85-7.25-.93L21.63,23,11,22.94a7.32,7.32,0,0,0-3-.39c-3.66.25-6.47,3-6.25,6.13S5.14,34.14,8.81,33.88ZM8,22.77a7.29,7.29,0,0,1,2.94.4l9.73.08-2,1.05,6.9.89L19.39,27l6.41,1.37-6.25.9,2.74,1.63L11.82,32.77a7.29,7.29,0,0,1-3,.89c-3.53.24-6.56-2-6.77-5S4.51,23,8,22.77Z" transform="translate(0 0)"/><path class="cls-3" d="M8.8,33.66a7.29,7.29,0,0,0,3-.89l10.47-1.88-2.74-1.63,6.25-.9L19.39,27l6.18-1.8-6.9-.89,2-1.05L11,23.17A7.29,7.29,0,0,0,8,22.77c-3.52.25-6.21,2.89-6,5.89S5.27,33.9,8.8,33.66ZM8.05,23a6.89,6.89,0,0,1,2.82.38l8.9.09-1.86,1,6.54.83-6,1.75,6,1.3-5.63.8,2.77,1.65-9.86,1.78-.09,0a7,7,0,0,1-2.9.85c-3.37.24-6.28-1.91-6.48-4.79S4.67,23.24,8.05,23Z" transform="translate(0 0)"/><path class="cls-2" d="M8.65,32.3a5.52,5.52,0,0,0,2.24-.66l7.76-1.41-2-1.22,4.63-.67-4.75-1L21.08,26,16,25.29l1.5-.79-7.22-.07a5.2,5.2,0,0,0-2.18-.29c-2.61.18-4.6,2.16-4.44,4.41S6,32.48,8.65,32.3Z" transform="translate(0 0)"/><path class="cls-4" d="M8.65,32.3a5.52,5.52,0,0,0,2.24-.66l7.76-1.41-2-1.22,4.63-.67-4.75-1L21.08,26,16,25.29l1.5-.79-7.22-.07a5.2,5.2,0,0,0-2.18-.29c-2.61.18-4.6,2.16-4.44,4.41S6,32.48,8.65,32.3Z" transform="translate(0 0)"/><path class="cls-2" d="M45.23,39.51a8.29,8.29,0,0,0-2.43-1.94l-.08-.06-7.48-7.2.57,3.15-4.13-4.22,2.88,5.65-5-4L33,36.69l-1.86-1L36.72,43a8.22,8.22,0,0,0,1.5,2.52C40.51,48.22,44,49,45.88,47.35S47.52,42.17,45.23,39.51ZM39,45a6.3,6.3,0,0,1-1.16-2l-4.49-6,1.51.82-2.74-4.56L36,36.35,33.74,31.9l3.39,3.47-.41-2.32,5.9,5.66a6.41,6.41,0,0,1,1.88,1.5c1.78,2.06,2,4.79.48,6.1S40.8,47,39,45Z" transform="translate(0 0)"/><path class="cls-3" d="M45.53,39.25a8.87,8.87,0,0,0-2.59-2.09l-8.37-8,.55,3.07-5-5.13,3.23,6.33L28,29.11l3.9,6.46-2.2-1.22,6.61,8.78a9,9,0,0,0,1.62,2.7c2.49,2.88,6.22,3.75,8.32,1.94S48,42.14,45.53,39.25Zm-7.46,6.44a8.73,8.73,0,0,1-1.57-2.62L30.44,35l2,1.12L28.76,30l5.18,4.16-3-6,4.57,4.68-.56-3.11,7.94,7.64a8.75,8.75,0,0,1,2.54,2c2.4,2.78,2.7,6.44.68,8.18S40.47,48.47,38.07,45.69Z" transform="translate(0 0)"/><path class="cls-3" d="M45.38,39.38a8.75,8.75,0,0,0-2.54-2L34.9,29.71l.56,3.11-4.57-4.68,3,6L28.76,30l3.71,6.15-2-1.12,6.06,8.06a8.73,8.73,0,0,0,1.57,2.62c2.4,2.78,6,3.61,8,1.87S47.78,42.16,45.38,39.38Zm-7.16,6.18A8.22,8.22,0,0,1,36.72,43l-5.54-7.38,1.86,1-3.51-5.83,5,4-2.88-5.65,4.13,4.22-.57-3.15,7.48,7.2.08.06a8.29,8.29,0,0,1,2.43,1.94c2.29,2.66,2.58,6.17.65,7.84S40.51,48.22,38.22,45.56Z" transform="translate(0 0)"/><path class="cls-2" d="M44.5,40.21a6.41,6.41,0,0,0-1.88-1.5l-5.9-5.66.41,2.32L33.74,31.9,36,36.35l-3.85-3.07,2.74,4.56L33.37,37l4.49,6A6.3,6.3,0,0,0,39,45c1.78,2,4.44,2.66,6,1.36S46.28,42.27,44.5,40.21Z" transform="translate(0 0)"/><path class="cls-4" d="M44.5,40.21a6.41,6.41,0,0,0-1.88-1.5l-5.9-5.66.41,2.32L33.74,31.9,36,36.35l-3.85-3.07,2.74,4.56L33.37,37l4.49,6A6.3,6.3,0,0,0,39,45c1.78,2,4.44,2.66,6,1.36S46.28,42.27,44.5,40.21Z" transform="translate(0 0)"/><path class="cls-2" d="M16.41,46.89a7.22,7.22,0,0,0,2-2.33l.06-.08,7.46-7-3.27.17,4.38-3.83-5.87,2.3,4.18-4.82-6.05,3,1.06-1.85L12.71,37.3a7,7,0,0,0-2.61,1.26c-2.76,2.08-3.58,5.65-1.84,7.95S13.66,49,16.41,46.89Zm-5.67-7.4a5.83,5.83,0,0,1,2-1l6.2-4-.86,1.51,4.74-2.31-3.18,3.7,4.62-1.79L20.7,38.8l2.4-.12-5.87,5.53A5.51,5.51,0,0,1,15.68,46c-2.13,1.61-5,1.46-6.34-.34S8.6,41.11,10.74,39.49Z" transform="translate(0 0)"/><path class="cls-3" d="M16.68,47.25a7.93,7.93,0,0,0,2.17-2.49l8.35-7.84-3.2.17,5.33-4.66L22.75,35l4.43-5.11-6.71,3.28L21.73,31l-9.12,5.86a7.77,7.77,0,0,0-2.79,1.35c-3,2.27-3.89,6.15-2,8.64S13.69,49.52,16.68,47.25ZM10,38.37a7.55,7.55,0,0,1,2.73-1.31l8.36-5.37-1.16,2,6.38-3.11-4.31,5,6.23-2.44-4.85,4.25,3.23-.17-7.92,7.44a7.64,7.64,0,0,1-2.1,2.43c-2.88,2.18-6.69,2-8.51-.4S7.08,40.55,10,38.37Z" transform="translate(0 0)"/><path class="cls-3" d="M16.55,47.07a7.64,7.64,0,0,0,2.1-2.43l7.92-7.44-3.23.17,4.85-4.25L22,35.56l4.31-5L19.89,33.7l1.16-2-8.36,5.37A7.55,7.55,0,0,0,10,38.37c-2.88,2.18-3.74,5.9-1.92,8.3S13.67,49.25,16.55,47.07ZM10.1,38.56a7,7,0,0,1,2.61-1.26l7.66-4.91-1.06,1.85,6.05-3-4.18,4.82,5.87-2.3-4.38,3.83,3.27-.17-7.46,7-.06.08a7.22,7.22,0,0,1-2,2.33C13.66,49,10,48.8,8.26,46.51S7.34,40.64,10.1,38.56Z" transform="translate(0 0)"/><path class="cls-2" d="M15.68,46a5.51,5.51,0,0,0,1.55-1.81l5.87-5.53-2.4.12,3.59-3.15-4.62,1.79,3.18-3.7-4.74,2.31L19,34.54l-6.2,4a5.83,5.83,0,0,0-2,1C8.6,41.11,8,43.88,9.34,45.68S13.55,47.63,15.68,46Z" transform="translate(0 0)"/><path class="cls-4" d="M15.68,46a5.51,5.51,0,0,0,1.55-1.81l5.87-5.53-2.4.12,3.59-3.15-4.62,1.79,3.18-3.7-4.74,2.31L19,34.54l-6.2,4a5.83,5.83,0,0,0-2,1C8.6,41.11,8,43.88,9.34,45.68S13.55,47.63,15.68,46Z" transform="translate(0 0)"/><path class="cls-2" d="M43.35,19.36a5.05,5.05,0,0,0-2.37.72l-.07,0-8.07,1.43L35.1,23.1l-4.61.63L35.41,25,30.5,26.52l5.34.89-1.53.85,7.27.26a5.16,5.16,0,0,0,2.3.4,4.79,4.79,0,1,0-.53-9.56Zm.51,8.52a4,4,0,0,1-1.77-.32l-5.89-.2,1.23-.69L33.26,26,37,24.81l-3.87-1,3.78-.53-1.65-1.16L41.62,21a3.94,3.94,0,0,1,1.83-.57,3.75,3.75,0,1,1,.41,7.49Z" transform="translate(0 0)"/><path class="cls-3" d="M43.33,18.94a5.63,5.63,0,0,0-2.54.77l-9,1.6L34,22.84l-5.61.76,5.52,1.46-5.21,1.57,5.92,1-1.8,1,8.65.28a5.45,5.45,0,0,0,2.46.42,5.33,5.33,0,0,0,5.15-5.49A5.34,5.34,0,0,0,43.33,18.94Zm.56,10.19a5.48,5.48,0,0,1-2.4-.42l-7.94-.27,1.66-.92-5.62-.94,5.06-1.53-5.22-1.38,5.1-.7L32.3,21.42l8.57-1.52a5.38,5.38,0,0,1,2.47-.75,5,5,0,1,1,.55,10Z" transform="translate(0 0)"/><path class="cls-3" d="M43.34,19.15a5.38,5.38,0,0,0-2.47.75L32.3,21.42,34.53,23l-5.1.7,5.22,1.38-5.06,1.53,5.62.94-1.66.92,7.94.27a5.48,5.48,0,0,0,2.4.42,5,5,0,1,0-.55-10Zm.54,9.77a5.16,5.16,0,0,1-2.3-.4l-7.27-.26,1.53-.85-5.34-.89L35.41,25l-4.92-1.3,4.61-.63-2.26-1.56,8.07-1.43.07,0a5.05,5.05,0,0,1,2.37-.72,4.79,4.79,0,1,1,.53,9.56Z" transform="translate(0 0)"/><path class="cls-2" d="M43.45,20.39a3.94,3.94,0,0,0-1.83.57l-6.35,1.13,1.65,1.16-3.78.53,3.87,1L33.26,26l4.17.71-1.23.69,5.89.2a4,4,0,0,0,1.77.32,3.75,3.75,0,1,0-.41-7.49Z" transform="translate(0 0)"/><path class="cls-4" d="M43.45,20.39a3.94,3.94,0,0,0-1.83.57l-6.35,1.13,1.65,1.16-3.78.53,3.87,1L33.26,26l4.17.71-1.23.69,5.89.2a4,4,0,0,0,1.77.32,3.75,3.75,0,1,0-.41-7.49Z" transform="translate(0 0)"/></svg>