<svg id="Ebene_1" data-name="Ebene 1" xmlns="http://www.w3.org/2000/svg" viewBox="0 0 50 50"><defs><style>.cls-1{fill:#c7b299;stroke:#000;}.cls-1,.cls-2{stroke-miterlimit:10;}.cls-2{fill:#f15a24;stroke:#c1272d;}.cls-3{fill:#ff0;opacity:0.66;}</style></defs><title>Feuerball_Skillbar</title><rect class="cls-1" x="0.5" y="0.5" width="49" height="49"/><path class="cls-2" d="M36.25,36.25a12,12,0,1,0-5.77-22.52L10.64,16.25l4.92,4-11.81,1,11.81,4-11.81,3,12.79,3-3.94,2,18.2,1.68A11.92,11.92,0,0,0,36.25,36.25Z" transform="translate(0 0)"/><path class="cls-3" d="M36.35,33.25a9,9,0,0,0,0-18,8.74,8.74,0,0,0-4.28,1.11L17.36,18.25l3.65,3L12.25,22,21,25l-8.76,2.25,9.48,2.25L18.82,31l13.49,1.26A8.71,8.71,0,0,0,36.35,33.25Z" transform="translate(0 0)"/></svg>