<svg id="Ebene_1" data-name="Ebene 1" xmlns="http://www.w3.org/2000/svg" viewBox="0 0 199.01 201.17"><defs><style>.cls-1,.cls-2,.cls-4{fill:#fff;}.cls-2{stroke:#000;}.cls-2,.cls-3,.cls-4,.cls-5{stroke-miterlimit:10;stroke-width:2px;}.cls-3{fill:#c1272d;}.cls-3,.cls-4,.cls-5{stroke:#1d1d1b;}.cls-5{fill:#c6323d;}.cls-6{fill:#eaeaea;}.cls-7{opacity:0;}.cls-8{fill:#1d1d1b;}</style></defs><title>healingPotion</title><rect class="cls-1" x="96.16" y="22.05" width="7" height="67"/><path d="M102.51,22.66v65h-5v-65h5m2-2h-9v69h9v-69Z" transform="translate(-0.35 0.39)"/><path class="cls-1" d="M100,21.66c-2.74,0-4.5-1.18-4.5-2s1.76-2,4.5-2,4.5,1.19,4.5,2S102.76,21.66,100,21.66Z" transform="translate(-0.35 0.39)"/><path d="M100,18.66a5.25,5.25,0,0,1,3.45,1,6.43,6.43,0,0,1-6.89,0,5.22,5.22,0,0,1,3.44-1m0-2c-3,0-5.5,1.35-5.5,3s2.47,3,5.5,3,5.5-1.34,5.5-3-2.46-3-5.5-3Z" transform="translate(-0.35 0.39)"/><path class="cls-2" d="M116,111.17" transform="translate(-0.35 0.39)"/><path class="cls-3" d="M99.54,145.11c-31.32,0-56.83-1.54-57.92-3.46C42.71,169.06,68.22,191,99.54,191s56.84-21.94,57.92-49.35C156.38,143.57,130.87,145.11,99.54,145.11Z" transform="translate(-0.35 0.39)"/><path class="cls-4" d="M157.47,141.47c0-.55,0-1.09,0-1.64,0-28.26-25.95-51.17-58-51.17s-58,22.91-58,51.17c0,.55,0,1.09,0,1.64C43.59,139.55,155.5,139.55,157.47,141.47Z" transform="translate(-0.35 0.39)"/><path class="cls-4" d="M157.47,141.47a1.09,1.09,0,0,0,0,.18.35.35,0,0,0,0-.13S157.48,141.49,157.47,141.47Z" transform="translate(-0.35 0.39)"/><path class="cls-5" d="M41.62,141v.2c1.09,2.18,26.6,3.93,57.92,3.93s56.84-1.75,57.92-3.93a1.27,1.27,0,0,1,0-.2C155.5,138.8,43.59,138.8,41.62,141Z" transform="translate(-0.35 0.39)"/><ellipse class="cls-6" cx="68.51" cy="108.43" rx="21.62" ry="6.4" transform="translate(-50.37 59.81) rotate(-35.25)"/><g class="cls-7"><path class="cls-8" d="M2.49,4a1.5,1.5,0,0,0,0-3,1.5,1.5,0,0,0,0,3Z" transform="translate(-0.35 0.39)"/></g><g class="cls-7"><path class="cls-8" d="M197.91,2.61a1.5,1.5,0,0,0,0-3,1.5,1.5,0,0,0,0,3Z" transform="translate(-0.35 0.39)"/></g><g class="cls-7"><path class="cls-8" d="M197.23,200.1a1.5,1.5,0,0,0,0-3,1.5,1.5,0,0,0,0,3Z" transform="translate(-0.35 0.39)"/></g><g class="cls-7"><path class="cls-8" d="M1.8,200.79a1.5,1.5,0,0,0,0-3,1.5,1.5,0,0,0,0,3Z" transform="translate(-0.35 0.39)"/></g></svg>