<svg xmlns="http://www.w3.org/2000/svg" viewBox="0 0 250 250"><defs><style>.cls-1{fill:gray;}.cls-2{fill:#4d4d4d;}</style></defs><title>inventory</title><g id="Ebene_1" data-name="Ebene 1"><rect class="cls-1" x="0.5" y="0.5" width="49" height="49"/><path class="cls-2" d="M49,1V49H1V1H49m1-1H0V50H50V0Z"/><rect class="cls-1" x="50.5" y="0.5" width="49" height="49"/><path class="cls-2" d="M99,1V49H51V1H99m1-1H50V50h50V0Z"/><rect class="cls-1" x="100.5" y="0.5" width="49" height="49"/><path class="cls-2" d="M149,1V49H101V1h48m1-1H100V50h50V0Z"/><rect class="cls-1" x="150.5" y="0.5" width="49" height="49"/><path class="cls-2" d="M199,1V49H151V1h48m1-1H150V50h50V0Z"/><rect class="cls-1" x="200.5" y="0.5" width="49" height="49"/><path class="cls-2" d="M249,1V49H201V1h48m1-1H200V50h50V0Z"/><rect class="cls-1" x="0.5" y="50.5" width="49" height="49"/><path class="cls-2" d="M49,51V99H1V51H49m1-1H0v50H50V50Z"/><rect class="cls-1" x="50.5" y="50.5" width="49" height="49"/><path class="cls-2" d="M99,51V99H51V51H99m1-1H50v50h50V50Z"/><rect class="cls-1" x="100.5" y="50.5" width="49" height="49"/><path class="cls-2" d="M149,51V99H101V51h48m1-1H100v50h50V50Z"/><rect class="cls-1" x="150.5" y="50.5" width="49" height="49"/><path class="cls-2" d="M199,51V99H151V51h48m1-1H150v50h50V50Z"/><rect class="cls-1" x="200.5" y="50.5" width="49" height="49"/><path class="cls-2" d="M249,51V99H201V51h48m1-1H200v50h50V50Z"/><rect class="cls-1" x="0.5" y="100.5" width="49" height="49"/><path class="cls-2" d="M49,101v48H1V101H49m1-1H0v50H50V100Z"/><rect class="cls-1" x="50.5" y="100.5" width="49" height="49"/><path class="cls-2" d="M99,101v48H51V101H99m1-1H50v50h50V100Z"/><rect class="cls-1" x="100.5" y="100.5" width="49" height="49"/><path class="cls-2" d="M149,101v48H101V101h48m1-1H100v50h50V100Z"/><rect class="cls-1" x="150.5" y="100.5" width="49" height="49"/><path class="cls-2" d="M199,101v48H151V101h48m1-1H150v50h50V100Z"/><rect class="cls-1" x="200.5" y="100.5" width="49" height="49"/><path class="cls-2" d="M249,101v48H201V101h48m1-1H200v50h50V100Z"/><rect class="cls-1" x="0.5" y="150.5" width="49" height="49"/><path class="cls-2" d="M49,151v48H1V151H49m1-1H0v50H50V150Z"/><rect class="cls-1" x="50.5" y="150.5" width="49" height="49"/><path class="cls-2" d="M99,151v48H51V151H99m1-1H50v50h50V150Z"/><rect class="cls-1" x="100.5" y="150.5" width="49" height="49"/><path class="cls-2" d="M149,151v48H101V151h48m1-1H100v50h50V150Z"/><rect class="cls-1" x="150.5" y="150.5" width="49" height="49"/><path class="cls-2" d="M199,151v48H151V151h48m1-1H150v50h50V150Z"/><rect class="cls-1" x="200.5" y="150.5" width="49" height="49"/><path class="cls-2" d="M249,151v48H201V151h48m1-1H200v50h50V150Z"/><rect class="cls-1" x="0.5" y="200.5" width="49" height="49"/><path class="cls-2" d="M49,201v48H1V201H49m1-1H0v50H50V200Z"/><rect class="cls-1" x="50.5" y="200.5" width="49" height="49"/><path class="cls-2" d="M99,201v48H51V201H99m1-1H50v50h50V200Z"/><rect class="cls-1" x="100.5" y="200.5" width="49" height="49"/><path class="cls-2" d="M149,201v48H101V201h48m1-1H100v50h50V200Z"/><rect class="cls-1" x="150.5" y="200.5" width="49" height="49"/><path class="cls-2" d="M199,201v48H151V201h48m1-1H150v50h50V200Z"/><rect class="cls-1" x="200.5" y="200.5" width="49" height="49"/><path class="cls-2" d="M249,201v48H201V201h48m1-1H200v50h50V200Z"/></g><g id="Ebene_2" data-name="Ebene 2"><path class="cls-2" d="M248,2V248H2V2H248m1-1H1V249H249V1Z"/></g></svg>