<svg id="Ebene_1" data-name="Ebene 1" xmlns="http://www.w3.org/2000/svg" viewBox="0 0 768 804"><defs><style>.cls-1{fill:none;}.cls-2{fill:#fff;}.cls-3{fill:#7c272d;}.cls-4{fill:#97272d;}.cls-5{fill:#662d91;}.cls-6{fill:#c1272d;}.cls-7{fill:#fcee21;}</style></defs><title>mageFire</title><ellipse id="hitkreis" class="cls-1" cx="384" cy="402" rx="384" ry="402"/><path class="cls-2" d="M566.35,318" transform="translate(-139.5 -95.5)"/><path class="cls-3" d="M546.56,318.54s-85.12-217.88-171.15,0" transform="translate(-139.5 -95.5)"/><path class="cls-3" d="M544,711.34s-85.12,217.88-171.14,0" transform="translate(-139.5 -95.5)"/><ellipse class="cls-4" cx="318.25" cy="419.11" rx="218.41" ry="226.52"/><path class="cls-5" d="M238.81,514.61c0-125.2,98.22-227.06,218.94-227.06s219,101.86,219,227.06-98.22,227.06-219,227.06S238.81,639.81,238.81,514.61Zm436.82,0c0-124.61-97.74-226-217.88-226S239.88,390,239.88,514.61s97.74,226,217.87,226S675.63,639.21,675.63,514.61Z" transform="translate(-139.5 -95.5)"/><polyline class="cls-6" points="318.25 340.5 6.06 419.11 318.25 507.05"/><polygon class="cls-7" points="394.95 308.33 377.88 307.63 367.64 321.3 363.02 304.86 346.86 299.34 361.07 289.87 361.33 272.79 374.73 283.38 391.05 278.35 385.12 294.36 394.95 308.33"/><polygon class="cls-7" points="469.7 482.2 454.76 463 430.48 464.42 444.12 444.28 435.27 421.62 458.64 428.37 477.45 412.95 478.25 437.26 498.73 450.39 475.86 458.66 469.7 482.2"/><polygon class="cls-7" points="301.71 548.66 322.94 538.19 326.34 514.77 342.86 531.72 366.18 527.72 355.17 548.66 366.18 569.61 342.86 565.61 326.34 582.56 322.94 559.14 301.71 548.66"/><polygon class="cls-7" points="225.05 569.38 232.59 550.32 221.16 533.31 241.61 534.59 254.25 518.46 259.37 538.3 278.61 545.35 261.31 556.34 260.56 576.82 244.76 563.77 225.05 569.38"/><polygon class="cls-7" points="191.91 308.33 198.26 289.69 186.52 273.89 206.21 274.18 217.61 258.12 223.42 276.94 242.21 282.82 226.11 294.16 226.32 313.85 210.56 302.04 191.91 308.33"/><polygon class="cls-7" points="293.43 287.61 289.64 267.38 270.83 259.03 288.9 249.18 291.03 228.72 305.98 242.85 326.11 238.56 317.28 257.14 327.58 274.95 307.18 272.3 293.43 287.61"/><polygon class="cls-7" points="467.46 368.41 462.85 349.79 444.89 343.04 461.17 332.9 462.05 313.73 476.73 326.08 495.22 320.99 488.01 338.77 498.57 354.78 479.43 353.42 467.46 368.41"/><polygon class="cls-7" points="353.84 419.96 356.96 395.25 338.38 378.68 362.84 374.01 372.86 351.21 384.86 373.03 409.64 375.52 392.59 393.67 397.88 418.01 375.35 407.41 353.84 419.96"/><polygon class="cls-7" points="417.74 546.59 426.2 529.99 417.32 513.6 435.74 516.52 448.58 503.01 451.49 521.42 468.31 529.46 451.7 537.92 449.25 556.39 436.07 543.21 417.74 546.59"/><polygon class="cls-7" points="164.89 449.96 167.5 426.02 149.26 410.31 172.83 405.39 182.14 383.19 194.1 404.09 218.09 406.09 201.91 423.92 207.43 447.35 185.47 437.47 164.89 449.96"/><polygon class="cls-7" points="96.02 443.83 100.52 427.89 89.94 415.15 106.49 414.5 115.34 400.5 121.07 416.04 137.12 420.13 124.11 430.38 125.17 446.91 111.41 437.7 96.02 443.83"/><polygon class="cls-7" points="260.28 447.14 262.89 424.89 246.04 410.13 268.01 405.74 276.85 385.15 287.81 404.69 310.12 406.73 294.93 423.2 299.88 445.04 279.52 435.68 260.28 447.14"/><path class="cls-6" d="M458,435.69s57.1,65.72,0,167" transform="translate(-139.5 -95.5)"/></svg>