<svg xmlns="http://www.w3.org/2000/svg" viewBox="0 0 1027 1027"><defs><style>.cls-1{fill:#565656;}.cls-2{fill:#333;}</style></defs><title>roomRectangle</title><g id="Ebene_2" data-name="Ebene 2"><rect class="cls-1" x="2" y="19" width="146" height="133"/><path class="cls-2" d="M146,21V150H4V21H146m4-4H0V154H150V17Z"/><rect class="cls-1" x="152" y="19" width="146" height="133"/><path class="cls-2" d="M296,21V150H154V21H296m4-4H150V154H300V17Z"/><rect class="cls-1" x="302" y="19" width="146" height="133"/><path class="cls-2" d="M446,21V150H304V21H446m4-4H300V154H450V17Z"/><rect class="cls-1" x="452" y="19" width="146" height="133"/><path class="cls-2" d="M596,21V150H454V21H596m4-4H450V154H600V17Z"/><rect class="cls-1" x="602" y="19" width="146" height="133"/><path class="cls-2" d="M746,21V150H604V21H746m4-4H600V154H750V17Z"/><rect class="cls-1" x="752" y="19" width="146" height="133"/><path class="cls-2" d="M896,21V150H754V21H896m4-4H750V154H900V17Z"/><rect class="cls-1" x="902" y="19" width="146" height="133"/><path class="cls-2" d="M1046,21V150H904V21h142m4-4H900V154h150V17Z"/><rect class="cls-1" x="70" y="156" width="146" height="133"/><path class="cls-2" d="M214,158V287H72V158H214m4-4H68V291H218V154Z"/><rect class="cls-1" x="220" y="156" width="146" height="133"/><path class="cls-2" d="M364,158V287H222V158H364m4-4H218V291H368V154Z"/><rect class="cls-1" x="370" y="156" width="146" height="133"/><path class="cls-2" d="M514,158V287H372V158H514m4-4H368V291H518V154Z"/><rect class="cls-1" x="520" y="156" width="146" height="133"/><path class="cls-2" d="M664,158V287H522V158H664m4-4H518V291H668V154Z"/><rect class="cls-1" x="670" y="156" width="146" height="133"/><path class="cls-2" d="M814,158V287H672V158H814m4-4H668V291H818V154Z"/><rect class="cls-1" x="820" y="156" width="146" height="133"/><path class="cls-2" d="M964,158V287H822V158H964m4-4H818V291H968V154Z"/><rect class="cls-1" x="970" y="156" width="146" height="133"/><path class="cls-2" d="M1114,158V287H972V158h142m4-4H968V291h150V154Z"/><rect class="cls-1" x="-80" y="156" width="146" height="133"/><path class="cls-2" d="M64,158V287H-78V158H64m4-4H-82V291H68V154Z"/><rect class="cls-1" x="18" y="293" width="146" height="133"/><path class="cls-2" d="M162,295V424H20V295H162m4-4H16V428H166V291Z"/><rect class="cls-1" x="168" y="293" width="146" height="133"/><path class="cls-2" d="M312,295V424H170V295H312m4-4H166V428H316V291Z"/><rect class="cls-1" x="318" y="293" width="146" height="133"/><path class="cls-2" d="M462,295V424H320V295H462m4-4H316V428H466V291Z"/><rect class="cls-1" x="468" y="293" width="146" height="133"/><path class="cls-2" d="M612,295V424H470V295H612m4-4H466V428H616V291Z"/><rect class="cls-1" x="618" y="293" width="146" height="133"/><path class="cls-2" d="M762,295V424H620V295H762m4-4H616V428H766V291Z"/><rect class="cls-1" x="768" y="293" width="146" height="133"/><path class="cls-2" d="M912,295V424H770V295H912m4-4H766V428H916V291Z"/><rect class="cls-1" x="918" y="293" width="146" height="133"/><path class="cls-2" d="M1062,295V424H920V295h142m4-4H916V428h150V291Z"/><rect class="cls-1" x="86" y="430" width="146" height="133"/><path class="cls-2" d="M230,432V561H88V432H230m4-4H84V565H234V428Z"/><rect class="cls-1" x="236" y="430" width="146" height="133"/><path class="cls-2" d="M380,432V561H238V432H380m4-4H234V565H384V428Z"/><rect class="cls-1" x="386" y="430" width="146" height="133"/><path class="cls-2" d="M530,432V561H388V432H530m4-4H384V565H534V428Z"/><rect class="cls-1" x="536" y="430" width="146" height="133"/><path class="cls-2" d="M680,432V561H538V432H680m4-4H534V565H684V428Z"/><rect class="cls-1" x="686" y="430" width="146" height="133"/><path class="cls-2" d="M830,432V561H688V432H830m4-4H684V565H834V428Z"/><rect class="cls-1" x="836" y="430" width="146" height="133"/><path class="cls-2" d="M980,432V561H838V432H980m4-4H834V565H984V428Z"/><rect class="cls-1" x="986" y="430" width="146" height="133"/><path class="cls-2" d="M1130,432V561H988V432h142m4-4H984V565h150V428Z"/><rect class="cls-1" x="-64" y="430" width="146" height="133"/><path class="cls-2" d="M80,432V561H-62V432H80m4-4H-66V565H84V428Z"/><rect class="cls-1" x="18" y="567" width="146" height="133"/><path class="cls-2" d="M162,569V698H20V569H162m4-4H16V702H166V565Z"/><rect class="cls-1" x="168" y="567" width="146" height="133"/><path class="cls-2" d="M312,569V698H170V569H312m4-4H166V702H316V565Z"/><rect class="cls-1" x="318" y="567" width="146" height="133"/><path class="cls-2" d="M462,569V698H320V569H462m4-4H316V702H466V565Z"/><rect class="cls-1" x="468" y="567" width="146" height="133"/><path class="cls-2" d="M612,569V698H470V569H612m4-4H466V702H616V565Z"/><rect class="cls-1" x="618" y="567" width="146" height="133"/><path class="cls-2" d="M762,569V698H620V569H762m4-4H616V702H766V565Z"/><rect class="cls-1" x="768" y="567" width="146" height="133"/><path class="cls-2" d="M912,569V698H770V569H912m4-4H766V702H916V565Z"/><rect class="cls-1" x="918" y="567" width="146" height="133"/><path class="cls-2" d="M1062,569V698H920V569h142m4-4H916V702h150V565Z"/><rect class="cls-1" x="86" y="704" width="146" height="133"/><path class="cls-2" d="M230,706V835H88V706H230m4-4H84V839H234V702Z"/><rect class="cls-1" x="236" y="704" width="146" height="133"/><path class="cls-2" d="M380,706V835H238V706H380m4-4H234V839H384V702Z"/><rect class="cls-1" x="386" y="704" width="146" height="133"/><path class="cls-2" d="M530,706V835H388V706H530m4-4H384V839H534V702Z"/><rect class="cls-1" x="536" y="704" width="146" height="133"/><path class="cls-2" d="M680,706V835H538V706H680m4-4H534V839H684V702Z"/><rect class="cls-1" x="686" y="704" width="146" height="133"/><path class="cls-2" d="M830,706V835H688V706H830m4-4H684V839H834V702Z"/><rect class="cls-1" x="836" y="704" width="146" height="133"/><path class="cls-2" d="M980,706V835H838V706H980m4-4H834V839H984V702Z"/><rect class="cls-1" x="986" y="704" width="146" height="133"/><path class="cls-2" d="M1130,706V835H988V706h142m4-4H984V839h150V702Z"/><rect class="cls-1" x="-64" y="704" width="146" height="133"/><path class="cls-2" d="M80,706V835H-62V706H80m4-4H-66V839H84V702Z"/><rect class="cls-1" x="18" y="841" width="146" height="133"/><path class="cls-2" d="M162,843V972H20V843H162m4-4H16V976H166V839Z"/><rect class="cls-1" x="168" y="841" width="146" height="133"/><path class="cls-2" d="M312,843V972H170V843H312m4-4H166V976H316V839Z"/><rect class="cls-1" x="318" y="841" width="146" height="133"/><path class="cls-2" d="M462,843V972H320V843H462m4-4H316V976H466V839Z"/><rect class="cls-1" x="468" y="841" width="146" height="133"/><path class="cls-2" d="M612,843V972H470V843H612m4-4H466V976H616V839Z"/><rect class="cls-1" x="618" y="841" width="146" height="133"/><path class="cls-2" d="M762,843V972H620V843H762m4-4H616V976H766V839Z"/><rect class="cls-1" x="768" y="841" width="146" height="133"/><path class="cls-2" d="M912,843V972H770V843H912m4-4H766V976H916V839Z"/><rect class="cls-1" x="918" y="841" width="146" height="133"/><path class="cls-2" d="M1062,843V972H920V843h142m4-4H916V976h150V839Z"/><rect class="cls-1" x="102" y="978" width="146" height="133"/><path class="cls-2" d="M246,980v129H104V980H246m4-4H100v137H250V976Z"/><rect class="cls-1" x="252" y="978" width="146" height="133"/><path class="cls-2" d="M396,980v129H254V980H396m4-4H250v137H400V976Z"/><rect class="cls-1" x="402" y="978" width="146" height="133"/><path class="cls-2" d="M546,980v129H404V980H546m4-4H400v137H550V976Z"/><rect class="cls-1" x="552" y="978" width="146" height="133"/><path class="cls-2" d="M696,980v129H554V980H696m4-4H550v137H700V976Z"/><rect class="cls-1" x="702" y="978" width="146" height="133"/><path class="cls-2" d="M846,980v129H704V980H846m4-4H700v137H850V976Z"/><rect class="cls-1" x="852" y="978" width="146" height="133"/><path class="cls-2" d="M996,980v129H854V980H996m4-4H850v137h150V976Z"/><rect class="cls-1" x="1002" y="978" width="146" height="133"/><path class="cls-2" d="M1146,980v129H1004V980h142m4-4H1000v137h150V976Z"/><rect class="cls-1" x="-48" y="978" width="146" height="133"/><path class="cls-2" d="M96,980v129H-46V980H96m4-4H-50v137H100V976Z"/></g><g id="Ebene_1" data-name="Ebene 1"><path d="M1009,18v991H18V18h991m18-18H0V1027H1027V0Z"/></g></svg>