<svg id="Ebene_1" data-name="Ebene 1" xmlns="http://www.w3.org/2000/svg" viewBox="0 0 1000 1000"><defs><style>.cls-1{fill:#2e3192;}.cls-2{fill:#29332b;}.cls-3{fill:#1b1464;fill-rule:evenodd;}.cls-4{fill:#fcfcfc;}</style></defs><title>runeMana</title><polygon class="cls-1" points="0.81 999.5 500 1.12 999.19 999.5 0.81 999.5"/><path class="cls-2" d="M500,8.24,998.38,1005H1.62L500,8.24M500,6,0,1006H1000L500,6Z" transform="translate(0 -6)"/><polygon class="cls-3" points="500 0 262 477 738 477 500 0"/><polygon class="cls-3" points="731 463 462 1000 1000 1000 731 463"/><polygon class="cls-3" points="269 463 0 1000 538 1000 269 463"/><path class="cls-4" d="M684.23,784.56a191.49,191.49,0,0,1-73.6-.47A189.05,189.05,0,0,1,541.5,755a177.29,177.29,0,0,1-53-56.33,171.64,171.64,0,0,1-9.95-155.31A174.05,174.05,0,0,1,597.19,442.72,184.11,184.11,0,0,1,636,437.36a189.39,189.39,0,0,1,38.64,2.91l-6.76,17.4c-4.4-3.23-8.71-6.65-13.34-9.6-4.52-3.14-9.32-5.81-14.07-8.61a198.67,198.67,0,0,0-62.27-21.88,223.29,223.29,0,0,0-33-3c-2.76,0-5.53.11-8.29.16-1.39,0-2.77,0-4.15.13l-4.13.32c-2.76.25-5.52.36-8.26.73l-8.21,1.12-2,.29-2,.39-4.06.79c-2.71.54-5.42,1-8.09,1.75l-8,2c-2.64.78-5.27,1.6-7.89,2.43-1.3.43-2.63.8-3.91,1.28l-3.86,1.45-3.86,1.44-1.93.71-1.89.81L457,433.77c-2.49,1.13-4.9,2.44-7.35,3.64A199.41,199.41,0,0,0,422,454.57a217.87,217.87,0,0,0-45.6,45.3l-1.22,1.58L374,503.09l-2.29,3.27-2.29,3.26c-.73,1.11-1.43,2.25-2.14,3.37l-2.13,3.36c-.71,1.12-1.45,2.21-2.08,3.38l-3.95,6.89c-1.29,2.3-2.43,4.7-3.66,7-.59,1.18-1.24,2.32-1.79,3.52L352,540.76c-1.08,2.41-2.28,4.75-3.21,7.22s-2,4.87-3,7.29a257.27,257.27,0,0,0-9.15,30,232.24,232.24,0,0,0-4.79,30.84,224.06,224.06,0,0,0-.18,31.09,214.08,214.08,0,0,0,26,88.29,235.69,235.69,0,0,0,16.66,25.78c1.54,2,3.17,4,4.74,6,.81,1,1.55,2,2.41,3l2.53,2.89c3.26,3.94,6.88,7.56,10.39,11.28a220.81,220.81,0,0,0,106.36,59.11,239,239,0,0,0,62.09,6.24,236.2,236.2,0,0,0,31.7-3.09l7.9-1.45c1.33-.21,2.62-.57,3.92-.87l3.93-.91,3.93-.92c1.31-.32,2.59-.73,3.89-1.1,2.58-.76,5.2-1.47,7.79-2.27a239.17,239.17,0,0,0,30.27-12.27,226,226,0,0,0,28.28-17.11,199.53,199.53,0,0,0,46.92-47.52l4.25,4.54c-4.07,2.08-8.19,4-12.39,5.83s-8.44,3.44-12.75,4.9-8.65,2.82-13,4S688.69,783.73,684.23,784.56Zm-.84-4.32q6.51-1.31,12.9-3.12c4.24-1.25,8.44-2.63,12.56-4.23s8.17-3.34,12.12-5.3,7.84-4,11.59-6.33a3.17,3.17,0,0,1,4.36,4.36l-.11.17A312.14,312.14,0,0,1,717,794.36a304.1,304.1,0,0,1-23.58,26,285.89,285.89,0,0,1-27.18,22.83,269.43,269.43,0,0,1-30.54,18.93c-2.69,1.37-5.41,2.65-8.13,4-1.37.65-2.72,1.34-4.1,1.95l-4.18,1.78c-2.8,1.15-5.57,2.44-8.43,3.46l-8.59,3.08-2.15.77-2.19.66-4.38,1.31c-2.93.85-5.86,1.78-8.84,2.43l-8.94,2.14c-3,.61-6,1.12-9.07,1.68a225.92,225.92,0,0,1-74.06.25,225.94,225.94,0,0,1-36.34-9c-3-.9-5.91-2-8.84-3.14s-5.88-2.17-8.73-3.47-5.75-2.47-8.6-3.77l-8.43-4.15a254.23,254.23,0,0,1-32-19.73A261.46,261.46,0,0,1,361,817.92c-4.33-4.55-8.75-9-12.76-13.87l-3.07-3.58c-1-1.18-1.95-2.47-2.93-3.7-1.91-2.49-3.88-4.94-5.74-7.47a256.88,256.88,0,0,1-19.74-32.08l-4.14-8.46c-.71-1.4-1.31-2.85-1.92-4.29l-1.85-4.33L307,735.81c-.57-1.46-1.09-2.94-1.64-4.41-1.06-2.95-2.19-5.87-3.16-8.85a249.65,249.65,0,0,1-12.68-73.5,262.76,262.76,0,0,1,1.94-37.22,257.88,257.88,0,0,1,7.46-36.4c.86-3,1.84-5.91,2.76-8.85.48-1.47.89-3,1.44-4.41l1.63-4.33c2.08-5.82,4.65-11.44,7.1-17.08,2.72-5.53,5.42-11.06,8.53-16.37l2.26-4c.75-1.33,1.61-2.61,2.41-3.92,1.66-2.58,3.25-5.2,5-7.73a239.24,239.24,0,0,1,79.36-73.56,241.43,241.43,0,0,1,32.23-15.59c2.77-1.06,5.51-2.22,8.32-3.2l8.43-2.83c.71-.24,1.4-.49,2.11-.71l2.14-.62,4.27-1.22,4.26-1.22c1.42-.41,2.88-.7,4.31-1a259.65,259.65,0,0,1,34.79-6.14l8.78-.81c1.46-.17,2.93-.19,4.4-.26l4.4-.21,4.4-.2c1.47,0,2.94,0,4.41,0,2.93,0,5.87,0,8.8,0a287.26,287.26,0,0,1,35,3.37,267.77,267.77,0,0,1,67.27,20.57c5.29,2.6,10.7,5,15.84,8,5.29,2.7,10.31,5.86,15.42,8.9a9.42,9.42,0,0,1-5.47,17.5l-1.29-.1a149.25,149.25,0,0,0-34.09,1.48,156.88,156.88,0,0,0-32.51,8.87,161.45,161.45,0,0,0-54.74,35.9,167.79,167.79,0,0,0-37,180.38,156,156,0,0,0,38,56.09,153.88,153.88,0,0,0,28,21,145.48,145.48,0,0,0,32.55,14,149.63,149.63,0,0,0,35.23,5.89A151.73,151.73,0,0,0,683.39,780.24Z" transform="translate(0 -6)"/></svg>