<svg id="Ebene_1" data-name="Ebene 1" xmlns="http://www.w3.org/2000/svg" viewBox="0 0 205 169"><defs><style>.cls-1,.cls-3{fill:#c7b299;}.cls-2{fill:#fff;}.cls-2,.cls-3,.cls-4,.cls-8{stroke:#000;stroke-miterlimit:10;}.cls-4{fill:#c7b298;}.cls-5{fill:#f15a24;}.cls-6{fill:#c1272d;}.cls-7{fill:#ff0;opacity:0.66;}.cls-8{opacity:0.21;}</style></defs><title>ScrollTrippleFireball</title><rect class="cls-1" x="0.5" y="10.5" width="204" height="149"/><path d="M199,28V176H-4V28H199m1-1H-5V177H200V27Z" transform="translate(5 -17)"/><line class="cls-2" x1="36.5" y1="13" x2="36" y2="158"/><ellipse class="cls-3" cx="18.5" cy="157.5" rx="18" ry="11"/><path class="cls-3" d="M31.5,30.5c0-6.08-8.06-11-18-11s-18,4.92-18,11" transform="translate(5 -17)"/><line class="cls-2" x1="168.5" y1="11" x2="169" y2="156"/><ellipse class="cls-4" cx="186.5" cy="155.5" rx="18" ry="11"/><path class="cls-3" d="M163.5,28.5c0-6.08,8.06-11,18-11s18,4.92,18,11" transform="translate(5 -17)"/><path class="cls-5" d="M45.57,85.26A34.29,34.29,0,0,0,51,96.21l.19.34,14.93,38L69,122.46l7.85,21.87-1.35-24.88,11.27,22.71-3.31-26.57,4.88,6.77L80.39,86.89A34,34,0,0,0,79,75.43C75.12,62.18,64.45,53.6,55.23,56.31S41.68,72,45.57,85.26Zm29.75-9a26.08,26.08,0,0,1,1,8.87l6.46,28.73-4-5.46,2.56,20.79-8.65-17.34,1,19.58-6.46-18-2.13,8.91L53.39,92.45A25.81,25.81,0,0,1,49.15,84c-3-10.27.39-20.32,7.62-22.44S72.3,66,75.32,76.29Z" transform="translate(5 -17)"/><path class="cls-6" d="M44.12,85.69a37.27,37.27,0,0,0,5.81,11.74L66.64,140l2.76-11.86L79,154.75l-1.52-27.88,12,24.07-3.67-29.45,5.76,8L82,87.26A36.72,36.72,0,0,0,80.47,75C76.24,60.6,64.64,51.28,54.62,54.22S39.89,71.28,44.12,85.69ZM79.74,75.22a35.17,35.17,0,0,1,1.43,12l8.73,38.74-5.32-7.37,3.49,28L76.46,123.16l1.43,26.38-8.7-24.24-2.8,12L50.54,96.9a35.29,35.29,0,0,1-5.69-11.43c-4.07-13.85.44-27.37,10.08-30.2S75.67,61.37,79.74,75.22Z" transform="translate(5 -17)"/><path class="cls-6" d="M44.85,85.47A35.29,35.29,0,0,0,50.54,96.9l15.85,40.39,2.8-12,8.7,24.24-1.43-26.38,11.61,23.39-3.49-28,5.32,7.37L81.17,87.17a35.17,35.17,0,0,0-1.43-12C75.67,61.37,64.56,52.44,54.93,55.27S40.78,71.62,44.85,85.47ZM79,75.43a34,34,0,0,1,1.37,11.46l7.93,35.47-4.88-6.77,3.31,26.57L75.48,119.45l1.35,24.88L69,122.46l-2.83,12.12-14.93-38L51,96.21a34.29,34.29,0,0,1-5.46-10.95C41.68,72,46,59,55.23,56.31S75.12,62.18,79,75.43Z" transform="translate(5 -17)"/><path class="cls-5" d="M49.15,84a25.81,25.81,0,0,0,4.24,8.47l11.78,29.94,2.13-8.91,6.46,18-1-19.58,8.65,17.34-2.56-20.79,4,5.46L76.36,85.16a26.08,26.08,0,0,0-1-8.87C72.3,66,64,59.41,56.77,61.54S46.13,73.71,49.15,84Z" transform="translate(5 -17)"/><path class="cls-7" d="M49.15,84a25.81,25.81,0,0,0,4.24,8.47l11.78,29.94,2.13-8.91,6.46,18-1-19.58,8.65,17.34-2.56-20.79,4,5.46L76.36,85.16a26.08,26.08,0,0,0-1-8.87C72.3,66,64,59.41,56.77,61.54S46.13,73.71,49.15,84Z" transform="translate(5 -17)"/><path class="cls-5" d="M114.14,76.23a34.36,34.36,0,0,0-.77,12.26v.4l-6.14,40.59,8.53-9.14-4.16,23L122.89,121l-1.62,25.41,10.45-24.78.84,8.34,10.9-34.85A34.18,34.18,0,0,0,148,84.44c3.27-13.49-1.67-26.3-11-28.56S117.41,62.74,114.14,76.23Zm30.24,7.1a26.17,26.17,0,0,1-3.54,8.24L132,119.82l-.7-6.74-8.21,19.37,1.2-19.43-8.93,17.55,3.41-18.89-6.3,6.69,4.8-32a26,26,0,0,1,.57-9.49c2.53-10.46,10.52-17.49,17.84-15.72S146.92,72.88,144.38,83.33Z" transform="translate(5 -17)"/><path class="cls-6" d="M112.66,75.87A37.7,37.7,0,0,0,111.81,89L105,134.42l8.33-8.93-5.06,28,12.65-25-1.71,27,11.58-27.48,1,9.83,12.91-41.51a37.07,37.07,0,0,0,4.85-11.42c3.55-14.65-1.82-28.58-12-31S116.22,61.21,112.66,75.87Zm36.09,8.75A35.86,35.86,0,0,1,144,95.74l-11.86,38.09-.91-9.08-11,26.13,1.66-26.18-12,23.68,4.61-25.46-8.43,9,6.52-43.1a35.44,35.44,0,0,1,.79-12.8c3.42-14.09,14.1-23.6,23.86-21.24S152.17,70.52,148.75,84.62Z" transform="translate(5 -17)"/><path class="cls-6" d="M113.4,76.05a35.44,35.44,0,0,0-.79,12.8L106.09,132l8.43-9-4.61,25.46,12-23.68-1.66,26.18,11-26.13.91,9.08L144,95.74a35.86,35.86,0,0,0,4.75-11.12c3.42-14.1-1.73-27.44-11.49-29.81S116.82,62,113.4,76.05ZM148,84.44a34.18,34.18,0,0,1-4.55,10.66L132.56,130l-.84-8.34-10.45,24.78L122.89,121,111.6,143.32l4.16-23-8.53,9.14,6.14-40.59v-.4a34.36,34.36,0,0,1,.77-12.26c3.27-13.49,13.52-22.62,22.86-20.35S151.28,71,148,84.44Z" transform="translate(5 -17)"/><path class="cls-5" d="M117.87,76.91a26,26,0,0,0-.57,9.49l-4.8,32,6.3-6.69-3.41,18.89L124.32,113l-1.2,19.43,8.21-19.37.7,6.74,8.81-28.25a26.17,26.17,0,0,0,3.54-8.24C146.92,72.88,143,63,135.71,61.19S120.4,66.45,117.87,76.91Z" transform="translate(5 -17)"/><path class="cls-7" d="M117.87,76.91a26,26,0,0,0-.57,9.49l-4.8,32,6.3-6.69-3.41,18.89L124.32,113l-1.2,19.43,8.21-19.37.7,6.74,8.81-28.25a26.17,26.17,0,0,0,3.54-8.24C146.92,72.88,143,63,135.71,61.19S120.4,66.45,117.87,76.91Z" transform="translate(5 -17)"/><path class="cls-5" d="M78.32,73.64a39.89,39.89,0,0,0,2.47,13l.09.42,4.66,44.15,5.85-11.93,2,25.18L98.44,118l5.07,27,3.62-28.82,3,8.48,1.44-39.47a39.72,39.72,0,0,0,1.62-12.41c-.36-15-8.47-27-18.08-26.81S78,58.63,78.32,73.64Zm31.06-1a30.65,30.65,0,0,1-1.27,9.6l-1.14,32-2.44-6.85-2.87,22.53-3.91-20.64-4,20.83-1.63-20.7-4.34,8.75L84,83.39a30.17,30.17,0,0,1-1.92-10.08c-.28-11.64,5.59-21.22,13.12-21.4S109.1,61,109.38,72.65Z" transform="translate(5 -17)"/><path class="cls-6" d="M76.81,73.67a43.74,43.74,0,0,0,2.6,14l5.22,49.4,5.71-11.66L92.74,156l5.7-29.69L103.81,155l4-31.95,3.52,10,1.65-47a42.85,42.85,0,0,0,1.69-13.29c-.39-16.32-9.2-29.39-19.64-29.13S76.42,57.36,76.81,73.67Zm37.12-.89a41.82,41.82,0,0,1-1.69,13l-1.51,43.13-3.26-9.24L103.66,150l-5.22-27.84-5.39,28.09-2.18-27.91-5.79,11.79L80.14,87.26a41.23,41.23,0,0,1-2.57-13.61C77.19,58,85,45.05,95.06,44.81S113.55,57.09,113.93,72.78Z" transform="translate(5 -17)"/><path class="cls-6" d="M77.57,73.65a41.23,41.23,0,0,0,2.57,13.61l4.94,46.88,5.79-11.79,2.18,27.91,5.39-28.09L103.66,150l3.81-30.39,3.26,9.24,1.51-43.13a41.82,41.82,0,0,0,1.69-13c-.38-15.69-8.83-28.21-18.87-28S77.19,58,77.57,73.65Zm35.6-.85a39.72,39.72,0,0,1-1.62,12.41l-1.44,39.47-3-8.48L103.51,145l-5.07-27-5.08,26.49-2-25.18-5.85,11.93L80.88,87.09l-.09-.42a39.89,39.89,0,0,1-2.47-13C78,58.63,85.48,46.22,95.09,46S112.81,57.79,113.17,72.8Z" transform="translate(5 -17)"/><path class="cls-5" d="M82.11,73.31A30.17,30.17,0,0,0,84,83.39l3.7,34.77,4.34-8.75,1.63,20.7,4-20.83,3.91,20.64,2.87-22.53,2.44,6.85,1.14-32a30.65,30.65,0,0,0,1.27-9.6C109.1,61,102.77,51.73,95.23,51.91S81.83,61.67,82.11,73.31Z" transform="translate(5 -17)"/><path class="cls-7" d="M82.11,73.31A30.17,30.17,0,0,0,84,83.39l3.7,34.77,4.34-8.75,1.63,20.7,4-20.83,3.91,20.64,2.87-22.53,2.44,6.85,1.14-32a30.65,30.65,0,0,0,1.27-9.6C109.1,61,102.77,51.73,95.23,51.91S81.83,61.67,82.11,73.31Z" transform="translate(5 -17)"/><ellipse class="cls-8" cx="18.5" cy="157.5" rx="18" ry="11"/><ellipse class="cls-8" cx="186.5" cy="155.5" rx="18" ry="11"/></svg>