<svg id="Ebene_1" data-name="Ebene 1" xmlns="http://www.w3.org/2000/svg" viewBox="0 0 1000 1000"><defs><style>.cls-1{opacity:0.72;}.cls-2{fill:#9e322a;stroke:#000;stroke-miterlimit:10;stroke-width:12px;}</style></defs><title>SlimeKingShadow</title><g class="cls-1"><path d="M500,994A494.13,494.13,0,0,1,307.71,44.82,494.13,494.13,0,0,1,692.29,955.18,490.9,490.9,0,0,1,500,994Z"/><path d="M500,12A488.14,488.14,0,0,1,690,949.66,488.13,488.13,0,0,1,310.05,50.34,485,485,0,0,1,500,12m0-12C223.86,0,0,223.86,0,500s223.86,500,500,500,500-223.86,500-500S776.14,0,500,0Z"/></g><path class="cls-2" d="M363,724"/></svg>