<svg id="Ebene_1" data-name="Ebene 1" xmlns="http://www.w3.org/2000/svg" viewBox="0 0 1000 726"><defs><style>.cls-1{fill:#007406;}.cls-2{fill:#2faa00;}.cls-3{fill:#009245;}</style></defs><title>SlimeKingBullet</title><path class="cls-1" d="M500,729c-67.3,0-132.58-9.57-194-28.44-59.32-18.22-112.6-44.29-158.34-77.5S66.06,551.27,41,508.29C15.13,463.85,2,416.65,2,368s13.13-95.85,39-140.29c25-43,60.91-81.6,106.6-114.77s99-59.28,158.34-77.5C367.42,16.57,432.7,7,500,7s132.58,9.57,194,28.44c59.32,18.22,112.6,44.29,158.34,77.5S933.94,184.73,959,227.71c25.89,44.44,39,91.64,39,140.29s-13.13,95.85-39,140.29c-25,43-60.91,81.6-106.6,114.77s-99,59.28-158.34,77.5C632.58,719.43,567.3,729,500,729Z" transform="translate(0 -5)"/><path d="M500,9c67.1,0,132.19,9.54,193.45,28.35C752.57,55.5,805.64,81.48,851.2,114.56s81.15,71.42,106,114.16C983,272.85,996,319.71,996,368s-13,95.15-38.75,139.28c-24.9,42.74-60.58,81.15-106,114.16s-98.63,59.06-157.75,77.21C632.19,717.46,567.1,727,500,727s-132.19-9.54-193.45-28.35c-59.12-18.15-112.19-44.13-157.75-77.21S67.65,550,42.75,507.28C17,463.15,4,416.29,4,368s13-95.15,38.75-139.28C67.65,186,103.33,147.57,148.8,114.56S247.43,55.5,306.55,37.35C367.81,18.54,432.9,9,500,9m0-4C223.86,5,0,167.52,0,368S223.86,731,500,731s500-162.52,500-363S776.14,5,500,5Z" transform="translate(0 -5)"/><ellipse class="cls-2" cx="222.5" cy="363.5" rx="122.5" ry="84.5"/><path class="cls-3" d="M222.5,290c31.87,0,61.69,8.64,83.95,24.32,21,14.78,32.55,34,32.55,54.18s-11.56,39.4-32.55,54.18C284.19,438.36,254.37,447,222.5,447s-61.69-8.64-83.95-24.32c-21-14.78-32.55-34-32.55-54.18s11.56-39.4,32.55-54.18C160.81,298.64,190.63,290,222.5,290m0-12c-71,0-128.5,40.52-128.5,90.5S151.53,459,222.5,459,351,418.48,351,368.5,293.47,278,222.5,278Z" transform="translate(0 -5)"/><ellipse class="cls-2" cx="524.5" cy="500.5" rx="122.5" ry="84.5"/><path class="cls-3" d="M524.5,427c31.87,0,61.69,8.64,84,24.32,21,14.78,32.55,34,32.55,54.18s-11.56,39.4-32.55,54.18c-22.26,15.68-52.08,24.32-84,24.32s-61.69-8.64-83.95-24.32c-21-14.78-32.55-34-32.55-54.18s11.56-39.4,32.55-54.18C462.81,435.64,492.63,427,524.5,427m0-12c-71,0-128.5,40.52-128.5,90.5S453.53,596,524.5,596,653,555.48,653,505.5,595.47,415,524.5,415Z" transform="translate(0 -5)"/><ellipse class="cls-2" cx="776.09" cy="591" rx="72.09" ry="49"/><path class="cls-3" d="M776.09,553c18.41,0,35.57,4.94,48.31,13.92,11.47,8.08,17.79,18.4,17.79,29.08s-6.32,21-17.79,29.08c-12.74,9-29.9,13.92-48.31,13.92s-35.56-4.94-48.31-13.92C716.32,617,710,606.68,710,596s6.32-21,17.78-29.08c12.75-9,29.91-13.92,48.31-13.92m0-12C733,541,698,565.62,698,596s35,55,78.09,55,78.1-24.62,78.1-55-35-55-78.1-55Z" transform="translate(0 -5)"/><ellipse class="cls-2" cx="277.5" cy="591.22" rx="79.5" ry="54.22"/><path class="cls-3" d="M277.5,548c20.39,0,39.4,5.49,53.55,15.45,12.86,9.06,19.95,20.7,19.95,32.77s-7.09,23.7-19.95,32.76c-14.15,10-33.16,15.45-53.55,15.45S238.1,639,224,629C211.09,619.92,204,608.29,204,596.22s7.09-23.71,19.95-32.77c14.15-10,33.16-15.45,53.55-15.45m0-12c-47.22,0-85.5,27-85.5,60.22s38.28,60.21,85.5,60.21,85.5-27,85.5-60.21S324.72,536,277.5,536Z" transform="translate(0 -5)"/><ellipse class="cls-2" cx="234.29" cy="157" rx="86.29" ry="59"/><path class="cls-3" d="M234.29,109c22.2,0,42.93,6,58.35,16.85,14.15,10,21.95,22.8,21.95,36.15s-7.8,26.19-21.95,36.15C277.22,209,256.49,215,234.29,215s-42.92-6-58.35-16.85C161.79,188.19,154,175.35,154,162s7.79-26.19,21.94-36.15C191.37,115,212.09,109,234.29,109m0-12c-51,0-92.29,29.1-92.29,65s41.32,65,92.29,65,92.3-29.1,92.3-65-41.33-65-92.3-65Z" transform="translate(0 -5)"/><ellipse class="cls-2" cx="479.5" cy="221.5" rx="122.5" ry="84.5"/><path class="cls-3" d="M479.5,148c31.87,0,61.69,8.64,84,24.32,21,14.78,32.55,34,32.55,54.18s-11.56,39.4-32.55,54.18c-22.26,15.68-52.08,24.32-84,24.32s-61.69-8.64-83.95-24.32c-21-14.78-32.55-34-32.55-54.18s11.56-39.4,32.55-54.18C417.81,156.64,447.63,148,479.5,148m0-12c-71,0-128.5,40.52-128.5,90.5S408.53,317,479.5,317,608,276.48,608,226.5,550.47,136,479.5,136Z" transform="translate(0 -5)"/><ellipse class="cls-2" cx="776.5" cy="351.5" rx="122.5" ry="84.5"/><path class="cls-3" d="M776.5,278c31.87,0,61.69,8.64,84,24.32,21,14.78,32.55,34,32.55,54.18s-11.56,39.4-32.55,54.18c-22.26,15.68-52.08,24.32-84,24.32s-61.69-8.64-84-24.32c-21-14.78-32.55-34-32.55-54.18s11.56-39.4,32.55-54.18c22.26-15.68,52.08-24.32,84-24.32m0-12c-71,0-128.5,40.52-128.5,90.5S705.53,447,776.5,447,905,406.48,905,356.5,847.47,266,776.5,266Z" transform="translate(0 -5)"/><ellipse class="cls-2" cx="733.5" cy="156.88" rx="103.5" ry="71.12"/><path class="cls-3" d="M733.5,96.76c26.8,0,51.84,7.25,70.52,20.4,17.4,12.26,27,28.14,27,44.72s-9.58,32.47-27,44.72C785.34,219.76,760.3,227,733.5,227s-51.84-7.24-70.52-20.4c-17.4-12.25-27-28.13-27-44.72s9.58-32.46,27-44.72c18.68-13.15,43.72-20.4,70.52-20.4m0-12C673,84.76,624,119.29,624,161.88S673,239,733.5,239,843,204.47,843,161.88,794,84.76,733.5,84.76Z" transform="translate(0 -5)"/></svg>