<svg id="Ebene_1" data-name="Ebene 1" xmlns="http://www.w3.org/2000/svg" viewBox="0 0 1000 1000"><defs><style>.cls-1{fill:#207400;}.cls-2{fill:#2e9b00;}.cls-3{fill:#9e322a;stroke:#000;stroke-miterlimit:10;stroke-width:12px;}.cls-4{opacity:0.63;}.cls-5{fill:#2f9904;}.cls-6{fill:#298c00;}</style></defs><title>SlimeArea</title><path class="cls-1" d="M500,992A492.13,492.13,0,0,1,308.49,46.66a492.13,492.13,0,0,1,383,906.68A489,489,0,0,1,500,992Z"/><path class="cls-2" d="M500,16A484.13,484.13,0,0,1,688.39,946,484.13,484.13,0,0,1,311.61,54,480.84,480.84,0,0,1,500,16m0-16C223.86,0,0,223.86,0,500s223.86,500,500,500,500-223.86,500-500S776.14,0,500,0Z"/><path class="cls-3" d="M363,724"/><g class="cls-4"><circle class="cls-5" cx="178.5" cy="376.5" r="49.5"/><path class="cls-6" d="M178.5,333A43.5,43.5,0,1,1,135,376.5,43.54,43.54,0,0,1,178.5,333m0-12A55.5,55.5,0,1,0,234,376.5,55.5,55.5,0,0,0,178.5,321Z"/></g><g class="cls-4"><circle class="cls-5" cx="663.5" cy="293.5" r="49.5" transform="translate(-61.81 276.25) rotate(-22.5)"/><path class="cls-6" d="M663.5,250A43.5,43.5,0,1,1,620,293.5,43.54,43.54,0,0,1,663.5,250m0-12A55.5,55.5,0,1,0,719,293.5,55.5,55.5,0,0,0,663.5,238Z"/></g><g class="cls-4"><circle class="cls-5" cx="400.5" cy="344.5" r="49.5"/><path class="cls-6" d="M400.5,301A43.5,43.5,0,1,1,357,344.5,43.54,43.54,0,0,1,400.5,301m0-12A55.5,55.5,0,1,0,456,344.5,55.5,55.5,0,0,0,400.5,289Z"/></g><g class="cls-4"><circle class="cls-5" cx="444.5" cy="154.5" r="49.5"/><path class="cls-6" d="M444.5,111A43.5,43.5,0,1,1,401,154.5,43.54,43.54,0,0,1,444.5,111m0-12A55.5,55.5,0,1,0,500,154.5,55.5,55.5,0,0,0,444.5,99Z"/></g><g class="cls-4"><circle class="cls-5" cx="307.5" cy="723.5" r="49.5"/><path class="cls-6" d="M307.5,680A43.5,43.5,0,1,1,264,723.5,43.54,43.54,0,0,1,307.5,680m0-12A55.5,55.5,0,1,0,363,723.5,55.5,55.5,0,0,0,307.5,668Z"/></g><g class="cls-4"><circle class="cls-5" cx="499.5" cy="555.5" r="49.5"/><path class="cls-6" d="M499.5,512A43.5,43.5,0,1,1,456,555.5,43.54,43.54,0,0,1,499.5,512m0-12A55.5,55.5,0,1,0,555,555.5,55.5,55.5,0,0,0,499.5,500Z"/></g><g class="cls-4"><circle class="cls-5" cx="792.5" cy="532.5" r="49.5"/><path class="cls-6" d="M792.5,489A43.5,43.5,0,1,1,749,532.5,43.54,43.54,0,0,1,792.5,489m0-12A55.5,55.5,0,1,0,848,532.5,55.5,55.5,0,0,0,792.5,477Z"/></g><g class="cls-4"><circle class="cls-5" cx="634.5" cy="872.5" r="49.5" transform="translate(-285.59 309.23) rotate(-22.5)"/><path class="cls-6" d="M634.5,829A43.5,43.5,0,1,1,591,872.5,43.54,43.54,0,0,1,634.5,829m0-12A55.5,55.5,0,1,0,690,872.5,55.5,55.5,0,0,0,634.5,817Z"/></g></svg>