<svg id="Ebene_1" data-name="Ebene 1" xmlns="http://www.w3.org/2000/svg" viewBox="0 0 1000 1000"><defs><style>.cls-1{fill:#9f1100;}.cls-2{fill:#d4ebff;}.cls-3{fill:#9e322a;stroke:#000;stroke-miterlimit:10;stroke-width:12px;}.cls-4{fill:#fbca0e;}.cls-5{fill:#0027e9;}.cls-6{fill:#e91300;}.cls-7{fill:#aa00a7;}.cls-8{fill:#0b00d4;}.cls-9{fill:#089f00;}</style></defs><title>SlimeKing</title><path class="cls-1" d="M500,994A494.13,494.13,0,0,1,307.71,44.82,494.13,494.13,0,0,1,692.29,955.18,490.9,490.9,0,0,1,500,994Z"/><path d="M500,12A488.14,488.14,0,0,1,690,949.66,488.13,488.13,0,0,1,310.05,50.34,485,485,0,0,1,500,12m0-12C223.86,0,0,223.86,0,500s223.86,500,500,500,500-223.86,500-500S776.14,0,500,0Z"/><circle class="cls-2" cx="499.5" cy="529.5" r="125.5"/><path d="M499.5,410A119.5,119.5,0,1,1,415,445a118.72,118.72,0,0,1,84.5-35m0-12A131.5,131.5,0,1,0,631,529.5,131.49,131.49,0,0,0,499.5,398Z"/><ellipse cx="500" cy="575" rx="62" ry="48"/><path d="M500,533c15.46,0,29.89,4.69,40.62,13.21C550.54,554.09,556,564.31,556,575s-5.46,20.91-15.38,28.79C529.89,612.31,515.46,617,500,617s-29.89-4.69-40.62-13.21C449.46,595.91,444,585.69,444,575s5.46-20.91,15.38-28.79C470.11,537.69,484.54,533,500,533m0-12c-37.56,0-68,24.18-68,54s30.44,54,68,54,68-24.18,68-54-30.44-54-68-54Z"/><path class="cls-2" d="M802.5,680a77.5,77.5,0,1,1,54.8-22.7A77,77,0,0,1,802.5,680Z"/><path d="M802.5,531a71.5,71.5,0,1,1-50.56,20.94A71.06,71.06,0,0,1,802.5,531m0-12a83.5,83.5,0,1,0,59,24.46,83.2,83.2,0,0,0-59-24.46Z"/><path d="M791.15,656.14c-10.09,0-20.61-4.73-28.86-13-14.5-14.5-17.31-35.27-6.29-46.3,4.39-4.38,10.42-6.69,17.44-6.69,10.09,0,20.61,4.73,28.86,13,14.49,14.5,17.31,35.26,6.28,46.29-4.38,4.39-10.41,6.7-17.43,6.7Z"/><path d="M773.44,596.16c8.38,0,17.58,4.2,24.62,11.23,6.15,6.16,10.18,14,11.05,21.58.76,6.63-.93,12.4-4.77,16.23-4.08,4.09-9.43,4.94-13.19,4.94-8.38,0-17.58-4.19-24.62-11.23-11.95-11.95-14.82-29.26-6.28-37.8,4.08-4.09,9.43-5,13.19-5m0-12c-8.28,0-16,2.77-21.68,8.46-13.39,13.39-10.57,37.92,6.29,54.78,9.69,9.69,21.92,14.74,33.1,14.74,8.28,0,16-2.76,21.68-8.45,13.39-13.39,10.57-37.92-6.29-54.78-9.69-9.69-21.92-14.75-33.1-14.75Z"/><path class="cls-2" d="M192.5,680a77.5,77.5,0,1,1,54.8-22.7A77,77,0,0,1,192.5,680Z"/><path d="M192.5,531a71.49,71.49,0,1,1-50.56,20.94A71.06,71.06,0,0,1,192.5,531m0-12a83.5,83.5,0,1,0,59,24.46,83.2,83.2,0,0,0-59-24.46Z"/><path d="M204.3,655.69c-7,0-13.05-2.31-17.44-6.69-11-11-8.21-31.8,6.29-46.3,8.25-8.25,18.77-13,28.86-13,7,0,13.05,2.31,17.43,6.7,11,11,8.21,31.79-6.28,46.29-8.26,8.25-18.77,13-28.86,13Z"/><path d="M222,595.72c3.76,0,9.11.85,13.19,4.94,3.83,3.83,5.53,9.6,4.77,16.23-.87,7.56-4.9,15.42-11.06,21.58-7,7-16.23,11.22-24.61,11.22-3.77,0-9.11-.85-13.19-4.94-8.55-8.54-5.67-25.86,6.28-37.81,7-7,16.24-11.22,24.62-11.22m0-12c-11.19,0-23.41,5-33.1,14.74-16.86,16.86-19.68,41.39-6.29,54.78,5.7,5.69,13.4,8.45,21.68,8.45,11.18,0,23.41-5.05,33.1-14.74,16.86-16.86,19.68-41.39,6.29-54.78-5.7-5.69-13.41-8.45-21.68-8.45Z"/><ellipse class="cls-3" cx="499.5" cy="835.5" rx="192.5" ry="91.5"/><path class="cls-3" d="M276,363"/><polygon class="cls-4" points="383 807.06 383 767.78 354.1 780.46 383 807.06"/><polygon class="cls-4" points="611.65 804.96 639.42 777.19 610.02 765.72 611.65 804.96"/><polygon class="cls-4" points="428.39 792.84 436.27 754.36 405.42 760.98 428.39 792.84"/><polygon class="cls-4" points="565.2 792.81 588.36 761.09 557.54 754.28 565.2 792.81"/><polygon class="cls-4" points="582.86 874.4 577.43 913.3 607.81 904.74 582.86 874.4"/><polygon class="cls-4" points="409.58 873.61 383.71 903.17 413.81 912.66 409.58 873.61"/><path class="cls-4" d="M229.37,377.17V407s126.5-16.4,268.76-16.4S766.89,407,766.89,407V377.17c-16.58-2.05-136.65-16.27-268.76-16.27S246,375.12,229.37,377.17Z"/><path class="cls-4" d="M730.81,275.3c-50.6-10.44-5-121-5-121s-75.9,95.79-133.13,81.26c-68.17-17.32-94.57-157.09-94.57-157.09s-26.39,139.77-94.56,157.09c-57.24,14.53-133.14-81.26-133.14-81.26s45.63,110.58-5,121-93.74-49.21-93.74-49.21l53,117.71a50.69,50.69,0,0,1,4.62,20.91v.1c27.63-3.28,142.83-16,268.76-16s241.14,12.74,268.76,16v-.1a50.7,50.7,0,0,1,4.63-20.91l53-117.71S781.41,285.73,730.81,275.3ZM342.39,305.12c-11.45,0-20.74-5.57-20.74-12.43s9.29-12.42,20.74-12.42,20.74,5.56,20.74,12.42S353.85,305.12,342.39,305.12Zm155.74-22.87c-18.09,0-32.76-8.79-32.76-19.63S480,243,498.13,243s32.77,8.79,32.77,19.63S516.23,282.25,498.13,282.25Zm155.74,22.87c-11.45,0-20.73-5.57-20.73-12.43s9.28-12.42,20.73-12.42,20.74,5.56,20.74,12.42S665.33,305.12,653.87,305.12Z"/><ellipse class="cls-5" cx="342.39" cy="292.65" rx="20.48" ry="12.8"/><ellipse class="cls-5" cx="653.87" cy="292.65" rx="20.48" ry="12.8"/><ellipse class="cls-6" cx="498.13" cy="262.78" rx="32.85" ry="19.63"/><circle class="cls-7" cx="267.72" cy="153.12" r="26.03"/><circle class="cls-7" cx="727.69" cy="153.12" r="26.03"/><circle class="cls-8" cx="498.13" cy="78.03" r="26.03"/><circle class="cls-9" cx="824.97" cy="229.07" r="26.03"/><circle class="cls-9" cx="175.97" cy="229.07" r="26.03"/><circle class="cls-9" cx="178.12" cy="245.29" r="2.13"/></svg>