<svg id="Ebene_1" data-name="Ebene 1" xmlns="http://www.w3.org/2000/svg" viewBox="0 0 52.41 32.98"><defs><style>.cls-1{fill:#f15a24;stroke:#ed1c24;stroke-miterlimit:10;stroke-width:4px;}.cls-2{fill:#ff0;}</style></defs><title>testball</title><path class="cls-1" d="M9.26,35.61a6.7,6.7,0,0,1,.19,2l0,.4.38.07A5.25,5.25,0,0,0,13.3,37l.23-.13a19.51,19.51,0,0,1,5.29-2.06l.11,0v0l0,3.05.42,0a5.58,5.58,0,0,0,3.5-1.39l.55-.43a8.07,8.07,0,0,1,2.19-1.41,7.9,7.9,0,0,1,2.6-.32h.32a35,35,0,0,0,11-2,14.45,14.45,0,0,0,2.5-1.11,17.18,17.18,0,0,0,4.45-4.33,8.2,8.2,0,0,0,2.17-4.27h.09c0-1.65-1-3-2.19-4.41a15.07,15.07,0,0,0-4.45-3.94,12.79,12.79,0,0,0-2.5-.89,33.85,33.85,0,0,0-11-1.08l-.31,0a7.78,7.78,0,0,1-2.61-.09A7.12,7.12,0,0,1,23.49,11l-.55-.38a5.1,5.1,0,0,0-3.5-1.08L19,9.56l0,3v0h-.11A17.91,17.91,0,0,1,13.6,11l-.22-.11a5.07,5.07,0,0,0-3.5-.75l-.38.11,0,.4a7.2,7.2,0,0,1-.18,2c-.11.45-.26.71-.46.79-.43.18-1-.34-1.52-.8a7.21,7.21,0,0,0-3.89-1.76L3,10.81l0,.52a10.53,10.53,0,0,0,.06,2,6.26,6.26,0,0,1-.16,2.78,6.12,6.12,0,0,1-.62,1.14,4.83,4.83,0,0,0-.85,2L1,19.47A5.41,5.41,0,0,1,1.44,21a12.54,12.54,0,0,1,.06,1.52l0,5.66a.61.61,0,0,1-.11.41,2.41,2.41,0,0,0-.23.27.79.79,0,0,0,0,.67.66.66,0,0,0,.19.27,4.8,4.8,0,0,0,.84,1.82,5.43,5.43,0,0,1,.62,1.08,6,6,0,0,1,.15,2.76,11.57,11.57,0,0,0-.06,2l0,.52.51-.11a8,8,0,0,0,3.9-2.11c.51-.5,1.09-1.07,1.51-.93C9,34.92,9.16,35.17,9.26,35.61ZM1.75,29.09l0-.14A.47.47,0,0,1,2,29.1ZM28.67,13.25,3.74,16.5m44,5.84" transform="translate(1.64 -7.46)"/><ellipse class="cls-2" cx="34.45" cy="15.73" rx="9" ry="4.5"/></svg>